<svg xmlns="http://www.w3.org/2000/svg" xmlns:xlink="http://www.w3.org/1999/xlink" preserveAspectRatio="xMidYMid" width="48" height="48" viewBox="0 0 48 48">
  <defs>
    <style>
      .cls-1 {
        fill: #fff;
        fill-rule: evenodd;
      }
    </style>
  </defs>
  <path d="M24.000,48.000 C10.745,48.000 -0.000,37.255 -0.000,24.000 C-0.000,10.745 10.745,0.000 24.000,0.000 C37.255,0.000 48.000,10.745 48.000,24.000 C48.000,37.255 37.255,48.000 24.000,48.000 ZM24.000,2.000 C11.850,2.000 2.000,11.850 2.000,24.000 C2.000,36.150 11.850,46.000 24.000,46.000 C36.150,46.000 46.000,36.150 46.000,24.000 C46.000,11.850 36.150,2.000 24.000,2.000 ZM35.660,27.415 C38.145,29.764 38.662,30.897 38.742,31.045 C38.742,31.045 39.775,32.885 37.597,32.901 L33.466,32.967 C32.578,33.147 31.400,32.326 31.400,32.326 C29.851,31.242 28.399,28.433 27.269,28.795 C27.269,28.795 26.107,29.173 26.139,31.702 C26.155,32.244 25.897,32.540 25.897,32.540 C25.897,32.540 25.607,32.852 25.042,32.901 L23.186,32.901 C19.104,33.164 15.505,29.337 15.505,29.337 C15.505,29.337 11.568,25.198 8.114,16.936 C7.888,16.394 8.130,16.131 8.130,16.131 C8.130,16.131 8.373,15.819 9.050,15.819 L13.472,15.786 C13.891,15.852 14.182,16.082 14.182,16.082 C14.182,16.082 14.440,16.262 14.569,16.607 C15.295,18.447 16.231,20.122 16.231,20.122 C17.845,23.506 18.942,24.081 19.572,23.736 C19.572,23.736 20.395,23.227 20.217,19.137 C20.153,17.658 19.749,16.985 19.749,16.985 C19.378,16.476 18.684,16.328 18.377,16.279 C18.135,16.246 18.539,15.655 19.071,15.392 C19.862,14.998 21.266,14.981 22.928,14.998 C24.235,15.014 24.606,15.096 25.107,15.211 C26.640,15.589 26.123,17.034 26.123,20.516 C26.123,21.633 25.913,23.194 26.704,23.703 C27.043,23.933 27.882,23.736 29.948,20.155 C29.948,20.155 30.916,18.447 31.674,16.459 C31.803,16.098 32.078,15.950 32.078,15.950 C32.078,15.950 32.336,15.802 32.691,15.852 L37.338,15.819 C38.742,15.638 38.968,16.295 38.968,16.295 C39.210,16.968 38.452,18.545 36.548,21.124 C33.417,25.362 33.078,24.968 35.660,27.415 Z" class="cls-1"/>
</svg>
