<svg xmlns="http://www.w3.org/2000/svg" width="48" height="48" viewBox="0 0 48 48">
  <defs>
    <style>
      .cls-1 {
        fill: #fff;
        fill-rule: evenodd;
      }
    </style>
  </defs>
  <path id="circle-youtube.svg" class="cls-1" d="M195,168a24,24,0,1,1-24,24A24,24,0,0,1,195,168Zm0,2a22,22,0,1,1-22,22A22,22,0,0,1,195,170Zm5.92,23.379-8.572,5.25a0.962,0.962,0,0,1-.569.164,1.172,1.172,0,0,1-.519-0.131,0.975,0.975,0,0,1-.552-0.919v-10.5a0.975,0.975,0,0,1,.552-0.919,1.025,1.025,0,0,1,1.088.033l8.572,5.251a1.033,1.033,0,0,1,0,1.772h0Zm8.914-5.587a19.676,19.676,0,0,0-.36-2.421,3.794,3.794,0,0,0-1.163-2.018,3.6,3.6,0,0,0-2.084-.952,112.129,112.129,0,0,0-11.233-.41,112.138,112.138,0,0,0-11.234.41,3.567,3.567,0,0,0-2.076.952,3.827,3.827,0,0,0-1.155,2.018,17.784,17.784,0,0,0-.376,2.421q-0.126,1.353-.143,2.239t-0.017,2.462q0,1.575.017,2.461t0.143,2.24a19.863,19.863,0,0,0,.359,2.42,3.8,3.8,0,0,0,1.164,2.018,3.6,3.6,0,0,0,2.084.952,112.138,112.138,0,0,0,11.234.41,112.129,112.129,0,0,0,11.233-.41,3.567,3.567,0,0,0,2.076-.952,3.827,3.827,0,0,0,1.155-2.018,17.768,17.768,0,0,0,.376-2.42q0.126-1.355.143-2.24t0.016-2.461q0-1.576-.016-2.462T209.834,187.792Z" transform="translate(-171 -168)"/>
</svg>
