<svg id="circle-gear.svg" xmlns="http://www.w3.org/2000/svg" width="48" height="48" viewBox="0 0 48 48">
  <defs>
    <style>
      .cls-1 {
        fill: #fff;
        fill-rule: evenodd;
      }
    </style>
  </defs>
  <path id="icon" class="cls-1" d="M197,106a24,24,0,1,1-24,24A24,24,0,0,1,197,106Zm0,3a21,21,0,1,1-21,21A21,21,0,0,1,197,109Z" transform="translate(-173 -106)"/>
  <path id="gear" class="cls-1" d="M197,120.25a9.75,9.75,0,1,1-9.75,9.75A9.75,9.75,0,0,1,197,120.25Zm0,4.875A4.875,4.875,0,1,1,192.125,130,4.875,4.875,0,0,1,197,125.125ZM195.375,117h3.25v6.5h-3.25V117Zm0,19.5h3.25V143h-3.25v-6.5ZM184,128.375h6.5v3.25H184v-3.25Zm19.5,0H210v3.25h-6.5v-3.25Zm1.542-8.717,2.3,2.3-4.6,4.6-2.3-2.3Zm-13.787,13.79,2.3,2.3-4.595,4.6-2.3-2.3Zm-2.3-13.789,4.6,4.6-2.3,2.3-4.6-4.595Zm13.79,13.788,4.6,4.595-2.3,2.3-4.6-4.6Z" transform="translate(-173 -106)"/>
</svg>
