<svg id="circle-start.svg" xmlns="http://www.w3.org/2000/svg" width="48" height="48" viewBox="0 0 48 48">
  <defs>
    <style>
      .cls-1 {
        fill: #fff;
        fill-rule: evenodd;
      }
    </style>
  </defs>
  <path id="icon" class="cls-1" d="M254,106a24,24,0,1,1-24,24A24,24,0,0,1,254,106Zm0,3a21,21,0,1,1-21,21A21,21,0,0,1,254,109Z" transform="translate(-230 -106)"/>
  <path id="star" class="cls-1" d="M254,117l4.284,8.17,8.714,1.76-6.066,6.81,1.1,9.258L254,139.037,245.966,143l1.1-9.258L241,126.931l8.714-1.76L254,117m-2.769,10.355-5.663,1.145,3.942,4.426-0.715,6.018,5.221-2.575,5.222,2.575-0.715-6.018,3.942-4.426-5.664-1.145-2.785-5.31-2.785,5.31" transform="translate(-230 -106)"/>
</svg>
