<svg xmlns="http://www.w3.org/2000/svg" xmlns:xlink="http://www.w3.org/1999/xlink" preserveAspectRatio="xMidYMid" width="48" height="48" viewBox="0 0 48 48">
  <defs>
    <style>
      .cls-1 {
        fill: #fff;
        fill-rule: evenodd;
      }
    </style>
  </defs>
  <g>
    <path d="M24.000,48.000 C10.745,48.000 0.000,37.255 0.000,24.000 C0.000,10.745 10.745,0.000 24.000,0.000 C37.255,0.000 48.000,10.745 48.000,24.000 C48.000,37.255 37.255,48.000 24.000,48.000 ZM24.000,3.000 C12.402,3.000 3.000,12.402 3.000,24.000 C3.000,35.598 12.402,45.000 24.000,45.000 C35.598,45.000 45.000,35.598 45.000,24.000 C45.000,12.402 35.598,3.000 24.000,3.000 Z" class="cls-1"/>
    <path d="M37.000,22.375 L37.000,25.625 L33.609,25.625 C33.361,27.104 32.771,28.464 31.935,29.636 L34.342,32.042 L32.044,34.341 L29.636,31.933 C28.463,32.766 27.104,33.355 25.625,33.604 L25.625,37.000 L22.375,37.000 L22.375,33.604 C20.897,33.355 19.538,32.767 18.366,31.934 L15.958,34.342 L13.659,32.044 L16.066,29.638 C15.230,28.465 14.639,27.105 14.391,25.625 L11.000,25.625 L11.000,22.375 L14.391,22.375 C14.639,20.896 15.229,19.536 16.065,18.364 L13.658,15.958 L15.956,13.659 L18.364,16.067 C19.537,15.234 20.896,14.645 22.375,14.396 L22.375,11.000 L25.625,11.000 L25.625,14.396 C27.103,14.645 28.462,15.233 29.634,16.066 L32.042,13.658 L34.341,15.956 L31.934,18.362 C32.770,19.535 33.361,20.895 33.609,22.375 L37.000,22.375 ZM24.000,19.125 C21.308,19.125 19.125,21.308 19.125,24.000 C19.125,26.692 21.308,28.875 24.000,28.875 C26.692,28.875 28.875,26.692 28.875,24.000 C28.875,21.308 26.692,19.125 24.000,19.125 Z" class="cls-1"/>
  </g>
</svg>
