<svg xmlns="http://www.w3.org/2000/svg" xmlns:xlink="http://www.w3.org/1999/xlink" preserveAspectRatio="xMidYMid" width="48" height="48" viewBox="0 0 48 48">
  <defs>
    <style>
      .cls-1 {
        fill: #fff;
        fill-rule: evenodd;
      }
    </style>
  </defs>
  <path d="M24.000,48.000 C10.745,48.000 0.000,37.255 0.000,24.000 C0.000,10.745 10.745,0.000 24.000,0.000 C37.255,0.000 48.000,10.745 48.000,24.000 C48.000,37.255 37.255,48.000 24.000,48.000 ZM24.000,2.000 C11.850,2.000 2.000,11.850 2.000,24.000 C2.000,36.150 11.850,46.000 24.000,46.000 C36.150,46.000 46.000,36.150 46.000,24.000 C46.000,11.850 36.150,2.000 24.000,2.000 ZM36.133,19.230 C36.145,19.457 36.150,19.686 36.150,19.916 C36.150,26.922 30.372,35.001 19.806,35.001 C16.562,35.001 13.542,34.123 11.000,32.619 C11.449,32.668 11.907,32.693 12.370,32.693 C15.062,32.693 17.539,31.845 19.505,30.423 C16.991,30.380 14.870,28.847 14.138,26.741 C14.489,26.803 14.849,26.836 15.219,26.836 C15.743,26.836 16.251,26.771 16.733,26.650 C14.105,26.163 12.125,24.020 12.125,21.452 C12.125,21.429 12.125,21.407 12.125,21.385 C12.900,21.782 13.786,22.020 14.727,22.048 C13.186,21.097 12.172,19.474 12.172,17.635 C12.172,16.663 12.455,15.753 12.949,14.970 C15.783,18.177 20.016,20.288 24.790,20.509 C24.692,20.121 24.641,19.716 24.641,19.301 C24.641,16.373 27.213,13.999 30.386,13.999 C32.038,13.999 33.531,14.643 34.579,15.673 C35.887,15.436 37.116,14.994 38.227,14.387 C37.798,15.625 36.887,16.664 35.701,17.320 C36.863,17.192 37.970,16.907 39.000,16.485 C38.230,17.549 37.256,18.482 36.133,19.230 Z" class="cls-1"/>
</svg>
