<svg xmlns="http://www.w3.org/2000/svg" xmlns:xlink="http://www.w3.org/1999/xlink" preserveAspectRatio="xMidYMid" width="48" height="48" viewBox="0 0 48 48">
  <defs>
    <style>
      .cls-1 {
        fill: #fff;
        fill-rule: evenodd;
      }
    </style>
  </defs>
  <g>
    <path d="M24.000,48.000 C10.745,48.000 0.000,37.255 0.000,24.000 C0.000,10.745 10.745,0.000 24.000,0.000 C37.255,0.000 48.000,10.745 48.000,24.000 C48.000,37.255 37.255,48.000 24.000,48.000 ZM24.000,3.000 C12.402,3.000 3.000,12.402 3.000,24.000 C3.000,35.598 12.402,45.000 24.000,45.000 C35.598,45.000 45.000,35.598 45.000,24.000 C45.000,12.402 35.598,3.000 24.000,3.000 Z" class="cls-1"/>
    <path d="M30.707,46.000 L24.000,46.000 L17.293,46.000 C14.221,45.064 11.430,43.497 9.051,41.458 C9.192,36.847 9.672,30.096 11.250,28.000 C13.335,25.231 14.991,24.976 16.500,25.000 C18.039,25.024 18.572,26.468 20.250,27.250 C22.084,28.105 24.000,28.000 24.000,28.000 C24.000,28.000 25.916,28.105 27.750,27.250 C29.428,26.468 29.961,25.024 31.500,25.000 C33.009,24.976 34.665,25.231 36.750,28.000 C38.328,30.096 38.808,36.847 38.949,41.458 C36.570,43.497 33.779,45.064 30.707,46.000 ZM31.500,17.875 C31.500,22.224 28.142,25.750 24.000,25.750 C19.858,25.750 16.500,22.224 16.500,17.875 C16.500,13.526 19.858,10.000 24.000,10.000 C28.142,10.000 31.500,13.526 31.500,17.875 Z" class="cls-1"/>
  </g>
</svg>
