<svg xmlns="http://www.w3.org/2000/svg" width="48" height="48" viewBox="0 0 48 48">
  <defs>
    <style>
      .cls-1 {
        fill: #fff;
        fill-rule: evenodd;
      }
    </style>
  </defs>
  <path id="circle-vk.svg" class="cls-1" d="M27,168A24,24,0,1,1,3,192,24,24,0,0,1,27,168Zm0,2A22,22,0,1,1,5,192,22,22,0,0,1,27,170ZM41.968,184.3s-0.226-.657-1.63-0.476l-4.647.033a1.038,1.038,0,0,0-.613.1,0.974,0.974,0,0,0-.4.509,30.51,30.51,0,0,1-1.727,3.7c-2.066,3.581-2.9,3.778-3.243,3.548-0.791-.509-0.581-2.07-0.581-3.187,0-3.482.516-4.927-1.017-5.3A8.392,8.392,0,0,0,25.928,183a9.913,9.913,0,0,0-3.857.394c-0.533.263-.936,0.854-0.694,0.887a2.129,2.129,0,0,1,1.372.706,4.925,4.925,0,0,1,.468,2.152c0.178,4.09-.646,4.6-0.646,4.6-0.629.345-1.727-.23-3.34-3.614a33.163,33.163,0,0,1-1.662-3.515,1.2,1.2,0,0,0-.387-0.525,1.67,1.67,0,0,0-.71-0.3l-4.421.033a1.156,1.156,0,0,0-.92.312,0.756,0.756,0,0,0-.016.805c3.453,8.262,7.39,12.4,7.39,12.4s3.6,3.827,7.681,3.564h1.856a1.381,1.381,0,0,0,.855-0.361,1.274,1.274,0,0,0,.242-0.838c-0.032-2.529,1.13-2.907,1.13-2.907,1.13-.362,2.582,2.447,4.131,3.531a3.407,3.407,0,0,0,2.066.641L40.6,200.9a1.154,1.154,0,0,0,1.146-1.856,13.84,13.84,0,0,0-3.082-3.63c-2.582-2.447-2.243-2.053.887-6.291C41.452,186.545,42.21,184.968,41.968,184.3Z" transform="translate(-3 -168)"/>
</svg>
