<svg id="circle-help.svg" xmlns="http://www.w3.org/2000/svg" width="48" height="48" viewBox="0 0 48 48">
  <defs>
    <style>
      .cls-1 {
        fill: #fff;
        fill-rule: evenodd;
      }
    </style>
  </defs>
  <path id="icon" class="cls-1" d="M27,106A24,24,0,1,1,3,130,24,24,0,0,1,27,106Zm0,3A21,21,0,1,1,6,130,21,21,0,0,1,27,109Zm-3.193,27.01c0-3.226.137-4.459,2.383-6.15,1.224-.922,1.961-1.5,1.961-2.879,0-2.621-1.107-3.1-2.435-3.1a2.689,2.689,0,0,0-2.783,2.52v0.034H17c0-5.847,5.619-9.432,9.066-9.432,3.784,0,8.939,2.14,8.939,8.726,0,2.722-.548,4.783-2.983,6.631-1.36,1.042-1.929,1.232-1.929,3.652H23.807ZM30.2,143h-6.3v-4.738h6.3V143Z" transform="translate(-3 -106)"/>
</svg>
