<svg xmlns="http://www.w3.org/2000/svg" xmlns:xlink="http://www.w3.org/1999/xlink" preserveAspectRatio="xMidYMid" width="48" height="48" viewBox="0 0 48 48">
  <defs>
    <style>
      .cls-1 {
        fill: #fff;
        fill-rule: evenodd;
      }
    </style>
  </defs>
  <g>
    <path d="M24.000,48.000 C10.745,48.000 -0.000,37.255 -0.000,24.000 C-0.000,10.745 10.745,0.000 24.000,0.000 C37.255,0.000 48.000,10.745 48.000,24.000 C48.000,37.255 37.255,48.000 24.000,48.000 ZM24.000,3.000 C12.402,3.000 3.000,12.402 3.000,24.000 C3.000,35.598 12.402,45.000 24.000,45.000 C35.598,45.000 45.000,35.598 45.000,24.000 C45.000,12.402 35.598,3.000 24.000,3.000 Z" class="cls-1"/>
    <path d="M24.000,11.001 L28.284,19.171 L36.998,20.931 L30.933,27.741 L32.033,36.999 L24.000,33.037 L15.967,36.999 L17.068,27.741 L11.002,20.931 L19.716,19.171 L24.000,11.001 M21.231,21.356 L15.568,22.501 L19.510,26.927 L18.795,32.945 L24.016,30.370 L29.238,32.945 L28.523,26.927 L32.465,22.501 L26.801,21.356 L24.016,16.046 L21.231,21.356 " class="cls-1"/>
  </g>
</svg>
