<svg xmlns="http://www.w3.org/2000/svg" xmlns:xlink="http://www.w3.org/1999/xlink" preserveAspectRatio="xMidYMid" width="48" height="48" viewBox="0 0 48 48">
  <defs>
    <style>
      .cls-1 {
        fill: #fff;
        fill-rule: evenodd;
      }
    </style>
  </defs>
  <path d="M24.000,48.000 C10.745,48.000 -0.000,37.255 -0.000,24.000 C-0.000,10.745 10.745,0.000 24.000,0.000 C37.255,0.000 48.000,10.745 48.000,24.000 C48.000,37.255 37.255,48.000 24.000,48.000 ZM24.000,2.000 C11.850,2.000 2.000,11.850 2.000,24.000 C2.000,36.150 11.850,46.000 24.000,46.000 C36.150,46.000 46.000,36.150 46.000,24.000 C46.000,11.850 36.150,2.000 24.000,2.000 ZM25.407,16.568 L25.407,19.977 L30.809,19.977 L30.103,25.295 L25.407,25.295 L25.407,39.000 L19.743,39.000 L19.743,25.295 L15.000,25.295 L15.000,19.977 L19.744,19.977 L19.744,16.040 C19.744,11.474 22.601,9.001 26.778,9.001 C28.779,9.001 30.498,9.132 31.000,9.197 L31.000,13.972 L28.103,13.971 C25.831,13.971 25.407,15.024 25.407,16.568 Z" class="cls-1"/>
</svg>
