<svg id="circle-plus.svg" xmlns="http://www.w3.org/2000/svg" width="48" height="48" viewBox="0 0 48 48">
  <defs>
    <style>
      .cls-1 {
        fill: #fff;
        fill-rule: evenodd;
      }
    </style>
  </defs>
  <path id="icon" class="cls-1" d="M140,106a24,24,0,1,1-24,24A24,24,0,0,1,140,106Zm0,3a21,21,0,1,1-21,21A21,21,0,0,1,140,109Z" transform="translate(-116 -106)"/>
  <path id="plus" class="cls-1" d="M129,128h22a2,2,0,0,1,0,4H129A2,2,0,0,1,129,128Zm11-11a2,2,0,0,1,2,2v22a2,2,0,0,1-4,0V119A2,2,0,0,1,140,117Z" transform="translate(-116 -106)"/>
</svg>
