<svg xmlns="http://www.w3.org/2000/svg" xmlns:xlink="http://www.w3.org/1999/xlink" preserveAspectRatio="xMidYMid" width="48" height="48" viewBox="0 0 48 48">
  <defs>
    <style>
      .cls-1 {
        fill: #fff;
        fill-rule: evenodd;
      }
    </style>
  </defs>
  <path d="M63.346,4670.390 L61.529,4668.694 C62.979,4668.093 64.000,4666.667 64.000,4665.000 L64.000,4629.000 C64.000,4626.791 62.209,4625.000 60.000,4625.000 L24.000,4625.000 C21.791,4625.000 20.000,4626.791 20.000,4629.000 L20.000,4665.000 C20.000,4667.209 21.791,4669.000 24.000,4669.000 L48.000,4669.000 L48.000,4671.000 L23.000,4671.000 C20.239,4671.000 18.000,4668.761 18.000,4666.000 L18.000,4628.000 C18.000,4625.239 20.239,4623.000 23.000,4623.000 L61.000,4623.000 C63.761,4623.000 66.000,4625.239 66.000,4628.000 L66.000,4666.000 C66.000,4667.908 64.918,4669.547 63.346,4670.390 Z" class="cls-1"/>
</svg>
