<svg xmlns="http://www.w3.org/2000/svg" xmlns:xlink="http://www.w3.org/1999/xlink" preserveAspectRatio="xMidYMid" width="48" height="48" viewBox="0 0 48 48">
  <defs>
    <style>
      .cls-1 {
        fill: #fff;
        fill-rule: evenodd;
      }
    </style>
  </defs>
  <path d="M24.000,48.000 C10.745,48.000 -0.000,37.255 -0.000,24.000 C-0.000,10.745 10.745,0.000 24.000,0.000 C37.255,0.000 48.000,10.745 48.000,24.000 C48.000,37.255 37.255,48.000 24.000,48.000 ZM24.000,2.000 C11.850,2.000 2.000,11.850 2.000,24.000 C2.000,36.150 11.850,46.000 24.000,46.000 C36.150,46.000 46.000,36.150 46.000,24.000 C46.000,11.850 36.150,2.000 24.000,2.000 ZM38.834,29.194 C38.751,30.096 38.625,30.903 38.458,31.614 C38.279,32.412 37.894,33.085 37.303,33.632 C36.711,34.179 36.019,34.496 35.227,34.584 C32.749,34.857 29.005,34.994 23.994,34.994 C18.982,34.994 15.238,34.857 12.760,34.584 C11.968,34.496 11.273,34.179 10.676,33.632 C10.079,33.085 9.691,32.412 9.512,31.614 C9.356,30.903 9.236,30.096 9.153,29.194 C9.069,28.291 9.021,27.545 9.010,26.954 C8.999,26.363 8.993,25.543 8.993,24.493 C8.993,23.442 8.999,22.622 9.010,22.031 C9.021,21.441 9.069,20.694 9.153,19.792 C9.236,18.889 9.362,18.083 9.529,17.371 C9.708,16.573 10.093,15.900 10.684,15.353 C11.276,14.806 11.968,14.489 12.760,14.401 C15.238,14.128 18.982,13.991 23.994,13.991 C29.005,13.991 32.749,14.128 35.227,14.401 C36.019,14.489 36.714,14.806 37.311,15.353 C37.908,15.900 38.296,16.573 38.474,17.371 C38.631,18.083 38.751,18.889 38.834,19.792 C38.918,20.694 38.965,21.441 38.977,22.031 C38.988,22.622 38.993,23.442 38.993,24.493 C38.993,25.543 38.988,26.363 38.977,26.954 C38.965,27.545 38.918,28.291 38.834,29.194 ZM29.920,23.607 L21.348,18.356 C21.002,18.137 20.640,18.126 20.260,18.323 C19.892,18.520 19.708,18.826 19.708,19.242 L19.708,29.743 C19.708,30.159 19.892,30.465 20.260,30.662 C20.439,30.750 20.612,30.793 20.779,30.793 C21.002,30.793 21.192,30.739 21.348,30.629 L29.920,25.379 C30.255,25.193 30.422,24.897 30.422,24.493 C30.422,24.088 30.255,23.793 29.920,23.607 Z" class="cls-1"/>
</svg>
