<svg xmlns="http://www.w3.org/2000/svg" width="48" height="48" viewBox="0 0 48 48">
  <defs>
    <style>
      .cls-1 {
        fill: #fff;
        fill-rule: evenodd;
      }
    </style>
  </defs>
  <path id="circle-facebook.svg" class="cls-1" d="M251,168a24,24,0,1,1-24,24A24,24,0,0,1,251,168Zm0,2a22,22,0,1,1-22,22A22,22,0,0,1,251,170Zm7,7.2a41.2,41.2,0,0,0-4.222-.2c-4.177,0-7.034,2.473-7.034,7.039v3.937H242V193.3h4.743V207h5.664V193.3h4.7l0.706-5.318h-5.4v-3.409c0-1.544.424-2.6,2.7-2.6H258V177.2Z" transform="translate(-227 -168)"/>
</svg>
