<svg xmlns="http://www.w3.org/2000/svg" xmlns:xlink="http://www.w3.org/1999/xlink" preserveAspectRatio="xMidYMid" width="48" height="48" viewBox="0 0 48 48">
  <defs>
    <style>
      .cls-1 {
        fill: #fff;
        fill-rule: evenodd;
      }
    </style>
  </defs>
  <path d="M24.000,48.000 C10.745,48.000 -0.000,37.255 -0.000,24.000 C-0.000,10.745 10.745,-0.000 24.000,-0.000 C37.255,-0.000 48.000,10.745 48.000,24.000 C48.000,37.255 37.255,48.000 24.000,48.000 ZM24.000,3.000 C12.402,3.000 3.000,12.402 3.000,24.000 C3.000,35.598 12.402,45.000 24.000,45.000 C35.598,45.000 45.000,35.598 45.000,24.000 C45.000,12.402 35.598,3.000 24.000,3.000 ZM29.019,26.358 C27.659,27.400 27.090,27.590 27.090,30.010 L20.807,30.010 C20.807,26.784 20.944,25.551 23.190,23.860 C24.414,22.938 25.150,22.359 25.150,20.981 C25.150,18.360 24.044,17.879 22.716,17.879 C20.944,17.879 20.057,19.157 19.932,20.399 L19.932,20.433 L13.997,20.433 C13.997,14.586 19.616,11.001 23.063,11.001 C26.847,11.001 32.003,13.141 32.003,19.727 C32.003,22.449 31.455,24.510 29.019,26.358 ZM27.196,36.999 L20.892,36.999 L20.892,32.261 L27.196,32.261 L27.196,36.999 Z" class="cls-1"/>
</svg>
