<svg id="circle-user.svg" xmlns="http://www.w3.org/2000/svg" width="48" height="48" viewBox="0 0 48 48">
  <defs>
    <style>
      .cls-1 {
        fill: #fff;
        fill-rule: evenodd;
      }
    </style>
  </defs>
  <path id="icon" class="cls-1" d="M83,106a24,24,0,1,1-24,24A24,24,0,0,1,83,106Zm0,3a21,21,0,1,1-21,21A21,21,0,0,1,83,109Z" transform="translate(-59 -106)"/>
  <path id="user" class="cls-1" d="M83,152H68s-0.222-14.716,2.25-18c2.085-2.769,3.741-3.024,5.25-3,1.539,0.024,2.072,1.468,3.75,2.25A8.79,8.79,0,0,0,83,134v18Zm0,0H98s0.222-14.716-2.25-18c-2.085-2.769-3.741-3.024-5.25-3-1.539.024-2.072,1.468-3.75,2.25A8.79,8.79,0,0,1,83,134v18Zm0-36a7.884,7.884,0,1,1-7.5,7.875A7.694,7.694,0,0,1,83,116Zm0-9a23,23,0,1,1-23,23A23,23,0,0,1,83,107Z" transform="translate(-59 -106)"/>
</svg>
