<svg xmlns="http://www.w3.org/2000/svg" xmlns:xlink="http://www.w3.org/1999/xlink" preserveAspectRatio="xMidYMid" width="48" height="48" viewBox="0 0 48 48">
  <defs>
    <style>
      .cls-1 {
        fill: #fff;
        fill-rule: evenodd;
      }
    </style>
  </defs>
  <g>
    <path d="M24.000,48.000 C10.745,48.000 -0.000,37.255 -0.000,24.000 C-0.000,10.745 10.745,-0.000 24.000,-0.000 C37.255,-0.000 48.000,10.745 48.000,24.000 C48.000,37.255 37.255,48.000 24.000,48.000 ZM24.000,3.000 C12.402,3.000 3.000,12.402 3.000,24.000 C3.000,35.598 12.402,45.000 24.000,45.000 C35.598,45.000 45.000,35.598 45.000,24.000 C45.000,12.402 35.598,3.000 24.000,3.000 Z" class="cls-1"/>
    <path d="M35.000,26.000 L26.000,26.000 L26.000,35.000 C26.000,36.105 25.105,37.000 24.000,37.000 C22.895,37.000 22.000,36.105 22.000,35.000 L22.000,26.000 L13.000,26.000 C11.895,26.000 11.000,25.105 11.000,24.000 C11.000,22.895 11.895,22.000 13.000,22.000 L22.000,22.000 L22.000,13.000 C22.000,11.895 22.895,11.000 24.000,11.000 C25.105,11.000 26.000,11.895 26.000,13.000 L26.000,22.000 L35.000,22.000 C36.105,22.000 37.000,22.895 37.000,24.000 C37.000,25.105 36.105,26.000 35.000,26.000 Z" class="cls-1"/>
  </g>
</svg>
