<svg xmlns="http://www.w3.org/2000/svg" width="48" height="48" viewBox="0 0 48 48">
  <defs>
    <style>
      .cls-1 {
        fill: #fff;
        fill-rule: evenodd;
      }
    </style>
  </defs>
  <path id="circle-twitter.svg" class="cls-1" d="M139,168a24,24,0,1,1-24,24A24,24,0,0,1,139,168Zm0,2a22,22,0,1,1-22,22A22,22,0,0,1,139,170Zm15,14.485a12.22,12.22,0,0,1-3.3.835,5.417,5.417,0,0,0,2.526-2.933,12.109,12.109,0,0,1-3.648,1.286A5.972,5.972,0,0,0,145.386,182a5.537,5.537,0,0,0-5.745,5.3,4.929,4.929,0,0,0,.149,1.208,16.8,16.8,0,0,1-11.841-5.539,4.971,4.971,0,0,0-.777,2.665,5.207,5.207,0,0,0,2.555,4.413,6.1,6.1,0,0,1-2.6-.663v0.067a5.432,5.432,0,0,0,4.608,5.2,6.231,6.231,0,0,1-2.595.091,5.715,5.715,0,0,0,5.367,3.682,12.151,12.151,0,0,1-7.135,2.27,12.638,12.638,0,0,1-1.37-.074A17.263,17.263,0,0,0,134.806,203c10.566,0,16.344-8.079,16.344-15.085,0-.23,0-0.459-0.017-0.686A11.205,11.205,0,0,0,154,184.485Z" transform="translate(-115 -168)"/>
</svg>
