<svg xmlns="http://www.w3.org/2000/svg" width="48" height="48" viewBox="0 0 48 48">
  <defs>
    <style>
      .cls-1 {
        fill: #fff;
        fill-rule: evenodd;
      }
    </style>
  </defs>
  <path id="circle-instagram.svg" class="cls-1" d="M83,168a24,24,0,1,1-24,24A24,24,0,0,1,83,168Zm0,2a22,22,0,1,1-22,22A22,22,0,0,1,83,170Zm-9.238,7h0.915v7.455h1.189V177H92.787v0.091h0.549v0.091H93.7v0.091h0.274v0.091H94.25v0.091l0.549,0.181v0.091l0.366,0.091v0.091L95.439,178l0.091,0.182h0.183l0.366,0.454,0.732,0.637v0.182l0.183,0.09,0.092,0.273h0.091l0.091,0.364H97.36l0.183,0.545h0.091l0.091,0.546h0.091v0.363h0.092v0.546H98v4.636H90.957a9.4,9.4,0,0,1-2.47-.091,1.965,1.965,0,0,1-.732-0.545v-0.091H87.573l-0.183-.273H87.207l-0.092-.182-0.366-.091-0.091-.181H86.476v-0.091H86.293v-0.091H86.018v-0.091H85.835V185l-1.646-.455H83v-0.09l-0.274.09a6.589,6.589,0,0,0-1.738.182v0.091l-0.64.091V185H80.165v0.091H79.89v0.091H79.707v0.091H79.524v0.091l-0.366.091-0.092.181-0.366.091L78.518,186a5.691,5.691,0,0,0-.732.455l-0.274.363H68v-4.636h0.091v-0.546h0.091v-0.363h0.091V181h0.091v-0.273h0.092l0.183-.545h0.092l0.091-.364h0.091l0.091-.273,0.183-.09v-0.182l0.64-.546a3.256,3.256,0,0,1,.64-0.636v6.273a4.347,4.347,0,0,0,1.281.091v-7.091l0.823-.182v7.273h1.189V177Zm21.311,7.364A21.491,21.491,0,0,0,95.256,180a1,1,0,0,0-.457-0.364,1.941,1.941,0,0,0-1.281-.181c-1.044,0-2.979-.3-3.2.545a2.227,2.227,0,0,0-.183,1.273v2.454h0.091l0.091,0.546a6.245,6.245,0,0,0,.549.363h3.75v-0.091H94.8v-0.09Zm-12.988,1.909,2.286,0.091v0.091l0.823,0.181v0.091l0.549,0.182V187l0.366,0.091v0.091l0.274,0.091,0.091,0.181h0.183l0.549,0.637,0.457,0.364v0.181l0.183,0.091v0.182L88.031,189v0.182l0.183,0.091v0.182H88.3v0.181H88.4v0.273h0.091v0.182h0.092v0.273h0.091v0.363a6.228,6.228,0,0,1,.183,2.364L88.4,194.636H88.3v0.182H88.213V195l-0.183.091v0.182l-0.183.091v0.181l-0.183.091v0.182l-0.366.273-0.64.727H86.476L86.384,197l-0.274.091v0.091l-0.366.091v0.091l-0.549.181v0.091l-0.823.182v0.091H83.823a4.658,4.658,0,0,1-2.561-.182H80.988v-0.091H80.8v-0.091H80.531v-0.09l-0.366-.091v-0.091H79.982l-0.092-.182H79.707l-0.092-.182H79.433l-0.274-.364H78.976l-0.274-.363H78.61V196l-0.366-.273-0.092-.272-0.183-.091L77.878,195H77.787v-0.182H77.7l-0.183-.545H77.421V194H77.329v-0.273H77.238v-0.363a4.883,4.883,0,0,1,.183-3.091V190h0.091l0.183-.545h0.092v-0.182h0.091l0.091-.364,0.275-.182v-0.182l0.366-.272v-0.182H78.7l0.183-.273h0.183l0.366-.454h0.183l0.092-.182H79.89L79.982,187l0.823-.273v-0.091h0.183v-0.091h0.274v-0.09A2.546,2.546,0,0,0,82.085,186.273ZM68,187.727h8.689v0.091H76.6V188l-0.183.091v0.182H76.323v0.182l-0.183.09v0.182H76.049V189H75.957l-0.092.364H75.774v0.272a6.629,6.629,0,0,0-.274,4V194l0.64,1.727,0.183,0.091,0.091,0.364h0.091l0.092,0.273,0.183,0.09v0.182L77.146,197v0.182l0.64,0.545L77.97,198h0.183l0.183,0.273h0.183l0.183,0.272,0.366,0.091,0.092,0.182,0.366,0.091V199l0.366,0.091v0.091h0.274v0.091h0.183v0.091h0.274v0.091h0.366v0.09h0.366v0.091a12.217,12.217,0,0,0,2.835.091l1.646-.454v-0.091h0.183v-0.091h0.274V199h0.183v-0.091h0.183l0.091-.182,0.366-.091,0.092-.181H87.39l0.183-.273h0.183l0.366-.455,0.915-.818v-0.182l0.274-.182v-0.181l0.183-.091,0.091-.364,0.183-.091v-0.182H89.86l0.091-.363h0.091V195h0.091v-0.182h0.091v-0.273h0.091v-0.272h0.092v-0.364H90.5v-0.454h0.091v-0.819h0.092v-1H90.591v-0.818L90.043,189H89.951l-0.183-.545-0.183-.091v-0.182H89.494V188H89.4l-0.091-.273H98v14.091H97.909v0.546H97.817v0.363H97.726V203H97.634v0.273H97.543l-0.183.545H97.268l-0.091.364H97.085l-0.092.273-0.183.09v0.182l-0.457.364-0.64.727H95.531L95.439,206l-0.275.091v0.091l-0.366.091v0.091l-0.549.181v0.091l-0.549.091v0.091H93.335v0.091H92.787V207H73.213v-0.091H72.665v-0.091H72.3v-0.091H72.024v-0.091H71.75v-0.091l-0.549-.181v-0.091l-0.366-.091v-0.091L70.561,206l-0.092-.182H70.287l-0.366-.454-0.732-.637v-0.182l-0.183-.09-0.091-.273H68.823l-0.091-.364H68.64l-0.183-.545H68.366l-0.091-.546H68.183v-0.363H68.092v-0.546H68V187.727Zm14.177,0.091v0.091H81.811V188l-0.549.091v0.091l-0.366.091v0.091H80.713l-0.091.181H80.439l-0.274.364H79.982V189l-0.275.182v0.182l-0.274.181v0.182l-0.183.091V190H79.159l-0.183.546H78.884l-0.091.545H78.7q-0.046.772-.092,1.545H78.7v0.546h0.091v0.273h0.091v0.272h0.091v0.182h0.091l0.183,0.546,0.183,0.09v0.182L79.8,195v0.182l0.183,0.182h0.183l0.274,0.363h0.183l0.091,0.182H80.9V196l0.366,0.091v0.091h0.274v0.091h0.274v0.091a6.159,6.159,0,0,0,2.012.091A4.183,4.183,0,0,0,86.2,195l0.366-.273v-0.182l0.183-.09,0.183-.546h0.091v-0.182h0.091v-0.272a3.116,3.116,0,0,0,.092-2.273l-0.092-.636H87.024v-0.182H86.933l-0.183-.546-0.183-.091v-0.182l-0.274-.181v-0.182L86.018,189v-0.091H85.835l-0.274-.364H85.378l-0.091-.181H85.1v-0.091l-0.366-.091v-0.091L84.189,188v-0.091H83.823v-0.091H82.177Z" transform="translate(-59 -168)"/>
</svg>
