<svg id="circle-note.svg" xmlns="http://www.w3.org/2000/svg" width="48" height="48" viewBox="0 0 48 48">
  <defs>
    <style>
      .cls-1 {
        fill: #fff;
        fill-rule: evenodd;
      }
    </style>
  </defs>
  <path id="icon" class="cls-1" d="M368,106a24,24,0,1,1-24,24A24,24,0,0,1,368,106Zm0,3a21,21,0,1,1-21,21A21,21,0,0,1,368,109Z" transform="translate(-344 -106)"/>
  <path id="note" class="cls-1" d="M377.447,137.851c-0.022,0-.043,0-0.065,0v0H358.618v0c-0.022,0-.043,0-0.065,0A1.539,1.539,0,0,1,357,136.325a1.519,1.519,0,0,1,.77-1.316l1.948-1.388V127.87h0a8.413,8.413,0,0,1,5.561-7.8v-0.655H365.3a2.722,2.722,0,0,1,5.41,0h0.013v0.655a8.413,8.413,0,0,1,5.561,7.8h0v5.751l1.948,1.388a1.519,1.519,0,0,1,.77,1.316A1.539,1.539,0,0,1,377.447,137.851ZM368.065,143v0h-0.13v0a3.2,3.2,0,0,1-2.911-2.287,0.762,0.762,0,0,1,.776-0.762h4.4a0.762,0.762,0,0,1,.776.762A3.2,3.2,0,0,1,368.065,143Z" transform="translate(-344 -106)"/>
</svg>
