<svg xmlns="http://www.w3.org/2000/svg" xmlns:xlink="http://www.w3.org/1999/xlink" preserveAspectRatio="xMidYMid" width="48" height="48" viewBox="0 0 48 48">
  <defs>
    <style>
      .cls-1 {
        fill: #fff;
        fill-rule: evenodd;
      }
    </style>
  </defs>
  <path d="M24.000,48.000 C10.745,48.000 0.000,37.255 0.000,24.000 C0.000,10.745 10.745,0.000 24.000,0.000 C37.255,0.000 48.000,10.745 48.000,24.000 C48.000,37.255 37.255,48.000 24.000,48.000 ZM24.000,2.000 C11.850,2.000 2.000,11.850 2.000,24.000 C2.000,36.150 11.850,46.000 24.000,46.000 C36.150,46.000 46.000,36.150 46.000,24.000 C46.000,11.850 36.150,2.000 24.000,2.000 ZM38.909,34.364 C38.878,34.364 38.848,34.364 38.817,34.364 C38.817,34.485 38.817,34.606 38.817,34.727 C38.787,34.727 38.756,34.727 38.726,34.727 C38.726,34.818 38.726,34.909 38.726,35.000 C38.695,35.000 38.665,35.000 38.634,35.000 C38.634,35.091 38.634,35.182 38.634,35.273 C38.604,35.273 38.573,35.273 38.543,35.273 C38.482,35.455 38.421,35.636 38.360,35.818 C38.329,35.818 38.299,35.818 38.268,35.818 C38.238,35.939 38.207,36.061 38.177,36.182 C38.146,36.182 38.116,36.182 38.085,36.182 C38.055,36.273 38.024,36.364 37.994,36.455 C37.933,36.485 37.872,36.515 37.811,36.545 C37.811,36.606 37.811,36.667 37.811,36.727 C37.659,36.848 37.506,36.970 37.354,37.091 C37.140,37.333 36.927,37.576 36.713,37.818 C36.652,37.818 36.591,37.818 36.530,37.818 C36.500,37.879 36.469,37.939 36.439,38.000 C36.348,38.030 36.256,38.061 36.165,38.091 C36.165,38.121 36.165,38.152 36.165,38.182 C36.043,38.212 35.921,38.242 35.799,38.273 C35.799,38.303 35.799,38.333 35.799,38.364 C35.616,38.424 35.433,38.485 35.250,38.545 C35.250,38.576 35.250,38.606 35.250,38.636 C35.067,38.667 34.884,38.697 34.701,38.727 C34.701,38.758 34.701,38.788 34.701,38.818 C34.579,38.818 34.457,38.818 34.335,38.818 C34.335,38.848 34.335,38.879 34.335,38.909 C34.153,38.909 33.970,38.909 33.787,38.909 C33.787,38.939 33.787,38.970 33.787,39.000 C32.232,39.000 30.677,39.000 29.122,39.000 C25.708,39.000 22.292,39.000 18.878,39.000 C17.323,39.000 15.768,39.000 14.213,39.000 C14.213,38.970 14.213,38.939 14.213,38.909 C14.030,38.909 13.847,38.909 13.665,38.909 C13.665,38.879 13.665,38.848 13.665,38.818 C13.543,38.818 13.421,38.818 13.299,38.818 C13.299,38.788 13.299,38.758 13.299,38.727 C13.207,38.727 13.116,38.727 13.024,38.727 C13.024,38.697 13.024,38.667 13.024,38.636 C12.933,38.636 12.841,38.636 12.750,38.636 C12.750,38.606 12.750,38.576 12.750,38.545 C12.567,38.485 12.384,38.424 12.201,38.364 C12.201,38.333 12.201,38.303 12.201,38.273 C12.079,38.242 11.957,38.212 11.835,38.182 C11.835,38.152 11.835,38.121 11.835,38.091 C11.744,38.061 11.652,38.030 11.561,38.000 C11.531,37.939 11.500,37.879 11.470,37.818 C11.409,37.818 11.348,37.818 11.287,37.818 C11.165,37.667 11.043,37.515 10.921,37.364 C10.677,37.152 10.433,36.939 10.189,36.727 C10.189,36.667 10.189,36.606 10.189,36.545 C10.128,36.515 10.067,36.485 10.006,36.455 C9.976,36.364 9.945,36.273 9.915,36.182 C9.884,36.182 9.854,36.182 9.823,36.182 C9.793,36.061 9.762,35.939 9.732,35.818 C9.701,35.818 9.671,35.818 9.640,35.818 C9.579,35.636 9.518,35.455 9.457,35.273 C9.427,35.273 9.396,35.273 9.366,35.273 C9.335,35.091 9.305,34.909 9.274,34.727 C9.244,34.727 9.213,34.727 9.183,34.727 C9.183,34.606 9.183,34.485 9.183,34.364 C9.152,34.364 9.122,34.364 9.091,34.364 C9.091,34.182 9.091,34.000 9.091,33.818 C9.061,33.818 9.030,33.818 9.000,33.818 C9.000,32.273 9.000,30.727 9.000,29.182 C9.000,26.031 9.000,22.879 9.000,19.727 C11.896,19.727 14.793,19.727 17.689,19.727 C17.689,19.758 17.689,19.788 17.689,19.818 C17.658,19.818 17.628,19.818 17.598,19.818 C17.598,19.879 17.598,19.939 17.598,20.000 C17.537,20.030 17.476,20.061 17.415,20.091 C17.415,20.151 17.415,20.212 17.415,20.273 C17.384,20.273 17.354,20.273 17.323,20.273 C17.323,20.333 17.323,20.394 17.323,20.455 C17.262,20.485 17.201,20.515 17.140,20.545 C17.140,20.606 17.140,20.667 17.140,20.727 C17.110,20.727 17.079,20.727 17.049,20.727 C17.049,20.818 17.049,20.909 17.049,21.000 C17.018,21.000 16.988,21.000 16.957,21.000 C16.927,21.121 16.896,21.242 16.866,21.364 C16.835,21.364 16.805,21.364 16.774,21.364 C16.774,21.455 16.774,21.545 16.774,21.636 C16.373,22.641 16.090,24.374 16.500,25.636 C16.500,25.758 16.500,25.879 16.500,26.000 C16.713,26.576 16.927,27.152 17.140,27.727 C17.201,27.758 17.262,27.788 17.323,27.818 C17.354,27.939 17.384,28.061 17.415,28.182 C17.445,28.182 17.476,28.182 17.506,28.182 C17.537,28.273 17.567,28.364 17.598,28.455 C17.658,28.485 17.719,28.515 17.780,28.545 C17.780,28.606 17.780,28.667 17.780,28.727 C17.902,28.818 18.024,28.909 18.146,29.000 C18.146,29.061 18.146,29.121 18.146,29.182 C18.360,29.364 18.573,29.545 18.787,29.727 C18.848,29.818 18.909,29.909 18.970,30.000 C19.031,30.000 19.092,30.000 19.152,30.000 C19.213,30.091 19.274,30.182 19.335,30.273 C19.396,30.273 19.457,30.273 19.518,30.273 C19.579,30.364 19.640,30.455 19.701,30.545 C19.823,30.576 19.945,30.606 20.067,30.636 C20.098,30.697 20.128,30.758 20.159,30.818 C20.280,30.849 20.402,30.879 20.524,30.909 C20.524,30.939 20.524,30.970 20.524,31.000 C20.646,31.030 20.768,31.061 20.890,31.091 C20.890,31.121 20.890,31.151 20.890,31.182 C20.982,31.182 21.073,31.182 21.165,31.182 C21.165,31.212 21.165,31.242 21.165,31.273 C21.226,31.273 21.287,31.273 21.348,31.273 C21.348,31.303 21.348,31.333 21.348,31.364 C21.439,31.364 21.530,31.364 21.622,31.364 C21.622,31.394 21.622,31.424 21.622,31.455 C21.744,31.455 21.866,31.455 21.988,31.455 C21.988,31.485 21.988,31.515 21.988,31.545 C22.110,31.545 22.232,31.545 22.354,31.545 C22.354,31.576 22.354,31.606 22.354,31.636 C22.663,31.733 24.777,31.847 25.189,31.727 C25.738,31.576 26.287,31.424 26.835,31.273 C26.835,31.242 26.835,31.212 26.835,31.182 C26.896,31.182 26.957,31.182 27.018,31.182 C27.018,31.151 27.018,31.121 27.018,31.091 C27.110,31.091 27.201,31.091 27.293,31.091 C27.293,31.061 27.293,31.030 27.293,31.000 C27.354,31.000 27.415,31.000 27.476,31.000 C27.476,30.970 27.476,30.939 27.476,30.909 C27.537,30.909 27.598,30.909 27.659,30.909 C27.689,30.849 27.720,30.788 27.750,30.727 C27.872,30.697 27.994,30.667 28.116,30.636 C28.146,30.576 28.177,30.515 28.207,30.455 C28.268,30.455 28.329,30.455 28.390,30.455 C28.451,30.364 28.512,30.273 28.573,30.182 C28.634,30.182 28.695,30.182 28.756,30.182 C28.878,30.030 29.000,29.879 29.122,29.727 C29.427,29.455 29.732,29.182 30.037,28.909 C30.037,28.849 30.037,28.788 30.037,28.727 C30.128,28.667 30.220,28.606 30.311,28.545 C30.311,28.485 30.311,28.424 30.311,28.364 C30.372,28.333 30.433,28.303 30.494,28.273 C30.524,28.152 30.555,28.030 30.585,27.909 C30.646,27.879 30.707,27.848 30.768,27.818 C30.768,27.758 30.768,27.697 30.768,27.636 C30.799,27.636 30.829,27.636 30.860,27.636 C30.890,27.515 30.921,27.394 30.951,27.273 C30.982,27.273 31.012,27.273 31.043,27.273 C31.043,27.182 31.043,27.091 31.043,27.000 C31.073,27.000 31.104,27.000 31.134,27.000 C31.134,26.939 31.134,26.879 31.134,26.818 C31.165,26.818 31.195,26.818 31.226,26.818 C31.226,26.727 31.226,26.636 31.226,26.545 C31.256,26.545 31.287,26.545 31.317,26.545 C31.317,26.455 31.317,26.364 31.317,26.273 C31.348,26.273 31.378,26.273 31.409,26.273 C31.409,26.152 31.409,26.030 31.409,25.909 C31.439,25.909 31.470,25.909 31.500,25.909 C31.500,25.758 31.500,25.606 31.500,25.455 C31.530,25.455 31.561,25.455 31.591,25.455 C31.591,25.182 31.591,24.909 31.591,24.636 C31.622,24.636 31.652,24.636 31.683,24.636 C31.683,24.303 31.683,23.970 31.683,23.636 C31.652,23.636 31.622,23.636 31.591,23.636 C31.591,23.364 31.591,23.091 31.591,22.818 C31.409,22.212 31.226,21.606 31.043,21.000 C31.012,21.000 30.982,21.000 30.951,21.000 C30.890,20.818 30.829,20.636 30.768,20.455 C30.707,20.424 30.646,20.394 30.585,20.364 C30.585,20.303 30.585,20.242 30.585,20.182 C30.555,20.182 30.524,20.182 30.494,20.182 C30.494,20.121 30.494,20.061 30.494,20.000 C30.463,20.000 30.433,20.000 30.402,20.000 C30.372,19.909 30.342,19.818 30.311,19.727 C33.207,19.727 36.104,19.727 39.000,19.727 C39.000,23.091 39.000,26.455 39.000,29.818 C39.000,31.151 39.000,32.485 39.000,33.818 C38.970,33.818 38.939,33.818 38.909,33.818 C38.909,34.000 38.909,34.182 38.909,34.364 ZM24.823,29.909 C24.011,30.140 22.887,29.964 22.262,29.727 C22.171,29.727 22.079,29.727 21.988,29.727 C21.988,29.697 21.988,29.667 21.988,29.636 C21.927,29.636 21.866,29.636 21.805,29.636 C21.805,29.606 21.805,29.576 21.805,29.545 C21.713,29.545 21.622,29.545 21.530,29.545 C21.530,29.515 21.530,29.485 21.530,29.455 C21.409,29.424 21.287,29.394 21.165,29.364 C21.165,29.333 21.165,29.303 21.165,29.273 C21.104,29.273 21.043,29.273 20.982,29.273 C20.951,29.212 20.921,29.151 20.890,29.091 C20.829,29.091 20.768,29.091 20.707,29.091 C20.677,29.030 20.646,28.970 20.616,28.909 C20.555,28.909 20.494,28.909 20.433,28.909 C20.341,28.788 20.250,28.667 20.159,28.545 C20.098,28.545 20.037,28.545 19.976,28.545 C19.884,28.424 19.793,28.303 19.701,28.182 C19.671,28.182 19.640,28.182 19.610,28.182 C19.610,28.121 19.610,28.061 19.610,28.000 C19.488,27.909 19.366,27.818 19.244,27.727 C19.213,27.636 19.183,27.545 19.152,27.455 C19.092,27.424 19.031,27.394 18.970,27.364 C18.939,27.242 18.909,27.121 18.878,27.000 C18.848,27.000 18.817,27.000 18.787,27.000 C18.787,26.939 18.787,26.879 18.787,26.818 C18.756,26.818 18.726,26.818 18.695,26.818 C18.634,26.636 18.573,26.455 18.512,26.273 C18.482,26.273 18.451,26.273 18.421,26.273 C18.421,26.182 18.421,26.091 18.421,26.000 C18.390,26.000 18.360,26.000 18.329,26.000 C18.329,25.909 18.329,25.818 18.329,25.727 C18.299,25.727 18.268,25.727 18.238,25.727 C18.238,25.606 18.238,25.485 18.238,25.364 C17.916,24.358 18.080,23.119 18.421,22.273 C18.421,22.182 18.421,22.091 18.421,22.000 C18.451,22.000 18.482,22.000 18.512,22.000 C18.573,21.818 18.634,21.636 18.695,21.455 C18.726,21.455 18.756,21.455 18.787,21.455 C18.787,21.394 18.787,21.333 18.787,21.273 C18.817,21.273 18.848,21.273 18.878,21.273 C18.909,21.152 18.939,21.030 18.970,20.909 C19.061,20.848 19.152,20.788 19.244,20.727 C19.244,20.667 19.244,20.606 19.244,20.545 C19.366,20.455 19.488,20.364 19.610,20.273 C19.610,20.212 19.610,20.151 19.610,20.091 C19.640,20.091 19.671,20.091 19.701,20.091 C19.762,20.000 19.823,19.909 19.884,19.818 C19.945,19.818 20.006,19.818 20.067,19.818 C20.189,19.667 20.311,19.515 20.433,19.364 C20.494,19.364 20.555,19.364 20.616,19.364 C20.646,19.303 20.677,19.242 20.707,19.182 C20.768,19.182 20.829,19.182 20.890,19.182 C20.921,19.121 20.951,19.061 20.982,19.000 C21.256,18.909 21.530,18.818 21.805,18.727 C21.805,18.697 21.805,18.667 21.805,18.636 C21.866,18.636 21.927,18.636 21.988,18.636 C21.988,18.606 21.988,18.576 21.988,18.545 C22.079,18.545 22.171,18.545 22.262,18.545 C22.262,18.515 22.262,18.485 22.262,18.455 C22.551,18.353 22.881,18.452 23.085,18.273 C23.847,18.303 24.610,18.333 25.372,18.364 C25.372,18.394 25.372,18.424 25.372,18.455 C25.646,18.515 25.921,18.576 26.195,18.636 C26.195,18.667 26.195,18.697 26.195,18.727 C26.378,18.788 26.561,18.848 26.744,18.909 C26.744,18.939 26.744,18.970 26.744,19.000 C26.866,19.030 26.988,19.061 27.110,19.091 C27.110,19.121 27.110,19.151 27.110,19.182 C27.201,19.212 27.293,19.242 27.384,19.273 C27.415,19.333 27.445,19.394 27.476,19.454 C27.537,19.454 27.598,19.454 27.659,19.454 C27.841,19.667 28.024,19.879 28.207,20.091 C28.360,20.212 28.512,20.333 28.665,20.455 C28.665,20.515 28.665,20.576 28.665,20.636 C28.726,20.667 28.787,20.697 28.848,20.727 C28.848,20.788 28.848,20.848 28.848,20.909 C28.908,20.939 28.969,20.970 29.030,21.000 C29.030,21.061 29.030,21.121 29.030,21.182 C29.091,21.212 29.152,21.242 29.213,21.273 C29.213,21.333 29.213,21.394 29.213,21.455 C29.244,21.455 29.274,21.455 29.305,21.455 C29.305,21.515 29.305,21.576 29.305,21.636 C29.335,21.636 29.366,21.636 29.396,21.636 C29.396,21.727 29.396,21.818 29.396,21.909 C29.427,21.909 29.457,21.909 29.488,21.909 C29.488,21.970 29.488,22.030 29.488,22.091 C29.518,22.091 29.549,22.091 29.579,22.091 C29.579,22.182 29.579,22.273 29.579,22.364 C29.610,22.364 29.640,22.364 29.671,22.364 C29.671,22.485 29.671,22.606 29.671,22.727 C29.786,23.083 30.024,24.513 29.854,25.091 C29.701,25.606 29.549,26.121 29.396,26.636 C29.366,26.636 29.335,26.636 29.305,26.636 C29.305,26.697 29.305,26.758 29.305,26.818 C29.274,26.818 29.244,26.818 29.213,26.818 C29.213,26.879 29.213,26.939 29.213,27.000 C29.152,27.030 29.091,27.061 29.030,27.091 C29.030,27.152 29.030,27.212 29.030,27.273 C28.969,27.303 28.908,27.333 28.848,27.364 C28.848,27.424 28.848,27.485 28.848,27.545 C28.787,27.576 28.726,27.606 28.665,27.636 C28.665,27.697 28.665,27.758 28.665,27.818 C28.543,27.909 28.421,28.000 28.299,28.091 C28.085,28.333 27.872,28.576 27.659,28.818 C27.598,28.818 27.537,28.818 27.476,28.818 C27.445,28.879 27.415,28.939 27.384,29.000 C27.293,29.030 27.201,29.061 27.110,29.091 C27.110,29.121 27.110,29.151 27.110,29.182 C26.988,29.212 26.866,29.242 26.744,29.273 C26.744,29.303 26.744,29.333 26.744,29.364 C26.561,29.424 26.378,29.485 26.195,29.545 C26.195,29.576 26.195,29.606 26.195,29.636 C25.921,29.697 25.646,29.758 25.372,29.818 C25.372,29.848 25.372,29.879 25.372,29.909 C25.189,29.909 25.006,29.909 24.823,29.909 ZM27.201,27.000 C27.323,26.909 27.445,26.818 27.567,26.727 C27.567,26.667 27.567,26.606 27.567,26.545 C27.628,26.515 27.689,26.485 27.750,26.455 C27.811,26.273 27.872,26.091 27.933,25.909 C27.963,25.909 27.994,25.909 28.024,25.909 C28.024,25.849 28.024,25.788 28.024,25.727 C28.055,25.727 28.085,25.727 28.116,25.727 C28.116,25.636 28.116,25.545 28.116,25.455 C28.413,24.706 28.481,24.005 28.207,23.182 C28.177,22.970 28.146,22.758 28.116,22.545 C28.085,22.545 28.055,22.545 28.024,22.545 C28.024,22.485 28.024,22.424 28.024,22.364 C27.994,22.364 27.963,22.364 27.933,22.364 C27.872,22.182 27.811,22.000 27.750,21.818 C27.689,21.788 27.628,21.758 27.567,21.727 C27.567,21.667 27.567,21.606 27.567,21.545 C27.476,21.485 27.384,21.424 27.293,21.364 C27.293,21.303 27.293,21.242 27.293,21.182 C27.201,21.121 27.110,21.061 27.018,21.000 C27.018,20.970 27.018,20.939 27.018,20.909 C26.957,20.909 26.896,20.909 26.835,20.909 C26.744,20.788 26.652,20.667 26.561,20.545 C26.500,20.545 26.439,20.545 26.378,20.545 C26.348,20.485 26.317,20.424 26.287,20.364 C26.226,20.364 26.165,20.364 26.104,20.364 C26.104,20.333 26.104,20.303 26.104,20.273 C25.982,20.242 25.860,20.212 25.738,20.182 C25.738,20.151 25.738,20.121 25.738,20.091 C25.555,20.061 25.372,20.030 25.189,20.000 C25.189,19.970 25.189,19.939 25.189,19.909 C25.067,19.909 24.945,19.909 24.823,19.909 C24.823,19.879 24.823,19.849 24.823,19.818 C24.274,19.818 23.726,19.818 23.177,19.818 C23.177,19.849 23.177,19.879 23.177,19.909 C23.055,19.909 22.933,19.909 22.811,19.909 C22.811,19.939 22.811,19.970 22.811,20.000 C22.628,20.030 22.445,20.061 22.262,20.091 C22.262,20.121 22.262,20.151 22.262,20.182 C22.140,20.212 22.018,20.242 21.896,20.273 C21.896,20.303 21.896,20.333 21.896,20.364 C21.835,20.364 21.774,20.364 21.713,20.364 C21.683,20.424 21.652,20.485 21.622,20.545 C21.561,20.545 21.500,20.545 21.439,20.545 C21.348,20.667 21.256,20.788 21.165,20.909 C21.104,20.909 21.043,20.909 20.982,20.909 C20.982,20.939 20.982,20.970 20.982,21.000 C20.890,21.061 20.799,21.121 20.707,21.182 C20.707,21.242 20.707,21.303 20.707,21.364 C20.616,21.424 20.524,21.485 20.433,21.545 C20.433,21.606 20.433,21.667 20.433,21.727 C20.372,21.758 20.311,21.788 20.250,21.818 C20.250,21.879 20.250,21.939 20.250,22.000 C20.220,22.000 20.189,22.000 20.159,22.000 C20.098,22.182 20.037,22.364 19.976,22.545 C19.945,22.545 19.915,22.545 19.884,22.545 C19.854,22.727 19.823,22.909 19.793,23.091 C19.762,23.091 19.732,23.091 19.701,23.091 C19.671,23.606 19.640,24.121 19.610,24.636 C19.640,24.636 19.671,24.636 19.701,24.636 C19.701,24.818 19.701,25.000 19.701,25.182 C19.732,25.182 19.762,25.182 19.793,25.182 C19.793,25.273 19.793,25.364 19.793,25.455 C19.823,25.455 19.854,25.455 19.884,25.455 C19.884,25.545 19.884,25.636 19.884,25.727 C19.915,25.727 19.945,25.727 19.976,25.727 C19.976,25.788 19.976,25.849 19.976,25.909 C20.006,25.909 20.037,25.909 20.067,25.909 C20.128,26.091 20.189,26.273 20.250,26.455 C20.311,26.485 20.372,26.515 20.433,26.545 C20.433,26.606 20.433,26.667 20.433,26.727 C20.555,26.818 20.677,26.909 20.799,27.000 C20.799,27.061 20.799,27.121 20.799,27.182 L20.982,27.364 C21.043,27.364 21.104,27.364 21.165,27.364 C21.256,27.485 21.348,27.606 21.439,27.727 C21.500,27.727 21.561,27.727 21.622,27.727 C21.652,27.788 21.683,27.848 21.713,27.909 C21.774,27.909 21.835,27.909 21.896,27.909 C21.896,27.939 21.896,27.970 21.896,28.000 C22.018,28.030 22.140,28.061 22.262,28.091 C22.262,28.121 22.262,28.151 22.262,28.182 C22.354,28.182 22.445,28.182 22.537,28.182 C22.537,28.212 22.537,28.242 22.537,28.273 C22.628,28.273 22.720,28.273 22.811,28.273 C22.811,28.303 22.811,28.333 22.811,28.364 C23.094,28.462 24.429,28.573 24.823,28.455 C25.848,28.145 26.636,27.775 27.201,27.000 ZM29.488,18.727 C29.157,18.639 28.989,18.376 28.756,18.182 C28.756,18.151 28.756,18.121 28.756,18.091 C28.695,18.091 28.634,18.091 28.573,18.091 C28.512,18.000 28.451,17.909 28.390,17.818 C28.329,17.818 28.268,17.818 28.207,17.818 C28.177,17.758 28.146,17.697 28.116,17.636 C27.994,17.606 27.872,17.576 27.750,17.545 C27.720,17.485 27.689,17.424 27.659,17.364 C27.598,17.364 27.537,17.364 27.476,17.364 C27.476,17.333 27.476,17.303 27.476,17.273 C27.415,17.273 27.354,17.273 27.293,17.273 C27.293,17.242 27.293,17.212 27.293,17.182 C27.201,17.182 27.110,17.182 27.018,17.182 C27.018,17.151 27.018,17.121 27.018,17.091 C26.957,17.091 26.896,17.091 26.835,17.091 C26.835,17.061 26.835,17.030 26.835,17.000 C26.287,16.848 25.738,16.697 25.189,16.545 C24.793,16.545 24.396,16.545 24.000,16.545 C24.000,16.515 24.000,16.485 24.000,16.455 C23.909,16.485 23.817,16.515 23.726,16.545 C23.065,16.581 22.519,16.549 21.988,16.727 C21.988,16.758 21.988,16.788 21.988,16.818 C21.774,16.848 21.561,16.879 21.348,16.909 C21.348,16.939 21.348,16.970 21.348,17.000 C21.287,17.000 21.226,17.000 21.165,17.000 C21.165,17.030 21.165,17.061 21.165,17.091 C21.073,17.091 20.982,17.091 20.890,17.091 C20.890,17.121 20.890,17.151 20.890,17.182 C20.829,17.182 20.768,17.182 20.707,17.182 C20.707,17.212 20.707,17.242 20.707,17.273 C20.646,17.273 20.585,17.273 20.524,17.273 C20.524,17.303 20.524,17.333 20.524,17.364 C20.402,17.394 20.280,17.424 20.159,17.455 C20.128,17.515 20.098,17.576 20.067,17.636 C19.945,17.667 19.823,17.697 19.701,17.727 C19.640,17.818 19.579,17.909 19.518,18.000 C19.268,18.175 19.001,18.251 18.787,18.455 C18.695,18.576 18.604,18.697 18.512,18.818 C15.342,18.818 12.170,18.818 9.000,18.818 C9.000,17.273 9.000,15.727 9.000,14.182 C9.030,14.182 9.061,14.182 9.091,14.182 C9.091,14.000 9.091,13.818 9.091,13.636 C9.122,13.636 9.152,13.636 9.183,13.636 C9.183,13.515 9.183,13.394 9.183,13.273 C9.213,13.273 9.244,13.273 9.274,13.273 C9.274,13.182 9.274,13.091 9.274,13.000 C9.305,13.000 9.335,13.000 9.366,13.000 C9.366,12.909 9.366,12.818 9.366,12.727 C9.396,12.727 9.427,12.727 9.457,12.727 C9.518,12.545 9.579,12.364 9.640,12.182 C9.671,12.182 9.701,12.182 9.732,12.182 C9.762,12.061 9.793,11.939 9.823,11.818 C9.854,11.818 9.884,11.818 9.915,11.818 C9.945,11.727 9.976,11.636 10.006,11.546 C10.067,11.515 10.128,11.485 10.189,11.455 C10.189,11.394 10.189,11.333 10.189,11.273 C10.402,11.091 10.616,10.909 10.829,10.727 C11.046,10.511 11.192,10.249 11.470,10.091 C11.470,12.182 11.470,14.273 11.470,16.364 C11.775,16.477 12.309,16.459 12.750,16.455 C12.750,14.091 12.750,11.727 12.750,9.364 C13.024,9.303 13.299,9.242 13.573,9.182 C13.573,11.606 13.573,14.030 13.573,16.455 C13.969,16.455 14.366,16.455 14.762,16.455 C14.762,13.970 14.762,11.485 14.762,9.000 C15.067,9.000 15.372,9.000 15.677,9.000 C15.677,11.485 15.677,13.970 15.677,16.455 C16.073,16.455 16.470,16.455 16.866,16.455 C16.866,13.970 16.866,11.485 16.866,9.000 C21.012,9.000 25.159,9.000 29.305,9.000 C30.799,9.000 32.293,9.000 33.787,9.000 C33.787,9.030 33.787,9.061 33.787,9.091 C33.970,9.091 34.153,9.091 34.335,9.091 C34.335,9.121 34.335,9.151 34.335,9.182 C34.457,9.182 34.579,9.182 34.701,9.182 C34.701,9.212 34.701,9.242 34.701,9.273 C34.793,9.273 34.884,9.273 34.976,9.273 C34.976,9.303 34.976,9.333 34.976,9.364 C35.067,9.364 35.159,9.364 35.250,9.364 C35.250,9.394 35.250,9.424 35.250,9.455 C35.433,9.515 35.616,9.576 35.799,9.636 C35.799,9.667 35.799,9.697 35.799,9.727 C35.921,9.758 36.043,9.788 36.165,9.818 C36.165,9.849 36.165,9.879 36.165,9.909 C36.256,9.939 36.348,9.970 36.439,10.000 C36.469,10.061 36.500,10.121 36.530,10.182 C36.591,10.182 36.652,10.182 36.713,10.182 C36.835,10.333 36.957,10.485 37.079,10.636 C37.323,10.848 37.567,11.061 37.811,11.273 C37.811,11.333 37.811,11.394 37.811,11.455 C37.872,11.485 37.933,11.515 37.994,11.546 C38.024,11.636 38.055,11.727 38.085,11.818 C38.116,11.818 38.146,11.818 38.177,11.818 C38.207,11.939 38.238,12.061 38.268,12.182 C38.299,12.182 38.329,12.182 38.360,12.182 C38.421,12.364 38.482,12.545 38.543,12.727 C38.573,12.727 38.604,12.727 38.634,12.727 C38.665,12.909 38.695,13.091 38.726,13.273 C38.756,13.273 38.787,13.273 38.817,13.273 C38.817,13.394 38.817,13.515 38.817,13.636 C38.848,13.636 38.878,13.636 38.909,13.636 C38.909,13.818 38.909,14.000 38.909,14.182 C38.939,14.182 38.970,14.182 39.000,14.182 C39.000,15.727 39.000,17.273 39.000,18.818 C36.653,18.818 34.305,18.818 31.957,18.818 C31.462,18.818 29.726,18.934 29.488,18.727 ZM35.616,16.636 C35.616,16.606 35.616,16.576 35.616,16.545 C35.677,16.545 35.738,16.545 35.799,16.545 C35.799,16.515 35.799,16.485 35.799,16.455 C35.890,16.424 35.982,16.394 36.073,16.364 C36.355,15.212 36.258,13.440 36.256,12.000 C35.982,11.821 36.170,11.743 35.799,11.636 C35.575,11.378 34.997,11.455 34.518,11.455 C33.475,11.454 31.539,11.160 31.317,12.000 C31.097,12.230 31.134,12.816 31.134,13.273 C31.134,14.091 31.134,14.909 31.134,15.727 C31.165,15.727 31.195,15.727 31.226,15.727 C31.256,15.909 31.287,16.091 31.317,16.273 C31.468,16.356 31.721,16.585 31.866,16.636 C32.719,16.636 33.573,16.636 34.427,16.636 C34.823,16.636 35.220,16.636 35.616,16.636 Z" class="cls-1"/>
</svg>
