<svg xmlns="http://www.w3.org/2000/svg" xmlns:xlink="http://www.w3.org/1999/xlink" preserveAspectRatio="xMidYMid" width="48" height="48" viewBox="0 0 48 48">
  <defs>
    <style>
      .cls-1 {
        fill: #fff;
        fill-rule: evenodd;
      }
    </style>
  </defs>
  <g>
    <path d="M24.000,48.000 C10.745,48.000 -0.000,37.255 -0.000,24.000 C-0.000,10.745 10.745,-0.000 24.000,-0.000 C37.255,-0.000 48.000,10.745 48.000,24.000 C48.000,37.255 37.255,48.000 24.000,48.000 ZM24.000,3.000 C12.402,3.000 3.000,12.402 3.000,24.000 C3.000,35.598 12.402,45.000 24.000,45.000 C35.598,45.000 45.000,35.598 45.000,24.000 C45.000,12.402 35.598,3.000 24.000,3.000 Z" class="cls-1"/>
    <path d="M24.000,37.000 L23.000,37.000 L23.000,26.000 L15.000,26.000 L15.000,25.000 L25.000,11.000 L26.000,11.000 L26.000,22.000 L33.000,22.000 L33.000,23.000 L24.000,37.000 Z" class="cls-1"/>
  </g>
</svg>
