<svg xmlns="http://www.w3.org/2000/svg" xmlns:xlink="http://www.w3.org/1999/xlink" preserveAspectRatio="xMidYMid" width="48" height="48" viewBox="0 0 48 48">
  <defs>
    <style>
      .cls-1, .cls-2 {
        fill: #444;
        fill-rule: evenodd;
      }

      .cls-2 {
        fill-opacity: 0.85;
      }
    </style>
  </defs>
  <g>
    <path d="M43.000,48.000 L5.000,48.000 C2.239,48.000 -0.000,45.761 -0.000,43.000 L-0.000,5.000 C-0.000,2.239 2.239,-0.000 5.000,-0.000 L43.000,-0.000 C45.761,-0.000 48.000,2.239 48.000,5.000 L48.000,43.000 C48.000,45.761 45.761,48.000 43.000,48.000 ZM46.000,6.000 C46.000,3.791 44.209,2.000 42.000,2.000 L6.000,2.000 C3.791,2.000 2.000,3.791 2.000,6.000 L2.000,42.000 C2.000,44.209 3.791,46.000 6.000,46.000 L42.000,46.000 C44.209,46.000 46.000,44.209 46.000,42.000 L46.000,6.000 Z" class="cls-1"/>
    <path d="M41.000,30.000 L7.000,30.000 C6.448,30.000 6.000,29.552 6.000,29.000 L6.000,21.000 C6.000,20.448 6.448,20.000 7.000,20.000 L41.000,20.000 C41.552,20.000 42.000,20.448 42.000,21.000 L42.000,29.000 C42.000,29.552 41.552,30.000 41.000,30.000 ZM41.000,18.000 L7.000,18.000 C6.448,18.000 6.000,17.552 6.000,17.000 L6.000,15.000 C6.000,14.448 6.448,14.000 7.000,14.000 L41.000,14.000 C41.552,14.000 42.000,14.448 42.000,15.000 L42.000,17.000 C42.000,17.552 41.552,18.000 41.000,18.000 ZM41.000,12.000 L7.000,12.000 C6.448,12.000 6.000,11.552 6.000,11.000 L6.000,9.000 C6.000,8.448 6.448,8.000 7.000,8.000 L41.000,8.000 C41.552,8.000 42.000,8.448 42.000,9.000 L42.000,11.000 C42.000,11.552 41.552,12.000 41.000,12.000 Z" class="cls-2"/>
    <path d="M36.000,40.000 L26.000,40.000 C25.448,40.000 25.000,39.552 25.000,39.000 L25.000,37.000 C25.000,36.448 25.448,36.000 26.000,36.000 L36.000,36.000 C36.552,36.000 37.000,36.448 37.000,37.000 L37.000,39.000 C37.000,39.552 36.552,40.000 36.000,40.000 ZM22.000,40.000 L12.000,40.000 C11.448,40.000 11.000,39.552 11.000,39.000 L11.000,37.000 C11.000,36.448 11.448,36.000 12.000,36.000 L22.000,36.000 C22.552,36.000 23.000,36.448 23.000,37.000 L23.000,39.000 C23.000,39.552 22.552,40.000 22.000,40.000 Z" class="cls-1"/>
  </g>
</svg>
