<svg xmlns="http://www.w3.org/2000/svg" xmlns:xlink="http://www.w3.org/1999/xlink" preserveAspectRatio="xMidYMid" width="45" height="51" viewBox="0 0 45 51">
  <defs>
    <style>
      .cls-1, .cls-2 {
        fill: #fff;
        fill-rule: evenodd;
      }

      .cls-2 {
        fill-opacity: 0.85;
      }
    </style>
  </defs>
  <g>
    <path d="M32.000,33.000 L32.000,37.000 L27.827,37.000 C27.521,38.820 26.795,40.494 25.767,41.937 L28.729,44.898 L25.901,47.727 L22.936,44.763 C21.493,45.789 19.820,46.514 18.000,46.820 L18.000,51.000 L14.000,51.000 L14.000,46.820 C12.181,46.514 10.508,45.790 9.066,44.765 L6.102,47.729 L3.273,44.901 L6.235,41.939 C5.206,40.495 4.479,38.821 4.173,37.000 L0.000,37.000 L0.000,33.000 L4.173,33.000 C4.479,31.180 5.205,29.506 6.233,28.063 L3.271,25.102 L6.099,22.273 L9.064,25.237 C10.507,24.211 12.180,23.486 14.000,23.180 L14.000,19.000 L18.000,19.000 L18.000,23.180 C19.819,23.486 21.492,24.210 22.934,25.235 L25.898,22.271 L28.727,25.099 L25.765,28.061 C26.794,29.505 27.521,31.179 27.827,33.000 L32.000,33.000 ZM16.000,29.000 C12.686,29.000 10.000,31.686 10.000,35.000 C10.000,38.314 12.686,41.000 16.000,41.000 C19.314,41.000 22.000,38.314 22.000,35.000 C22.000,31.686 19.314,29.000 16.000,29.000 Z" class="cls-1"/>
    <path d="M45.000,10.500 L45.000,13.500 L41.864,13.500 C41.634,14.864 41.091,16.118 40.322,17.199 L42.547,19.424 L40.426,21.545 L38.201,19.321 C37.120,20.091 35.865,20.635 34.500,20.865 L34.500,24.000 L31.500,24.000 L31.500,20.865 C30.135,20.636 28.882,20.092 27.800,19.322 L25.576,21.547 L23.455,19.426 L25.679,17.201 C24.909,16.119 24.366,14.865 24.136,13.500 L21.000,13.500 L21.000,10.500 L24.136,10.500 C24.366,9.136 24.909,7.882 25.678,6.801 L23.453,4.576 L25.574,2.455 L27.799,4.679 C28.880,3.909 30.135,3.365 31.500,3.135 L31.500,-0.000 L34.500,-0.000 L34.500,3.135 C35.865,3.364 37.119,3.908 38.200,4.678 L40.424,2.453 L42.545,4.574 L40.321,6.799 C41.091,7.881 41.634,9.135 41.864,10.500 L45.000,10.500 ZM33.000,7.000 C30.239,7.000 28.000,9.239 28.000,12.000 C28.000,14.761 30.239,17.000 33.000,17.000 C35.761,17.000 38.000,14.761 38.000,12.000 C38.000,9.239 35.761,7.000 33.000,7.000 Z" class="cls-2"/>
  </g>
</svg>
