<svg id="gear.svg" xmlns="http://www.w3.org/2000/svg" width="48" height="48" viewBox="0 0 48 48">
  <defs>
    <style>
      .cls-1 {
        fill: #fff;
        fill-rule: evenodd;
      }
    </style>
  </defs>
  <path id="big" class="cls-1" d="M272,12a18,18,0,1,1-18,18A18,18,0,0,1,272,12Zm0,9a9,9,0,1,1-9,9A9,9,0,0,1,272,21ZM269,6h6V18h-6V6Zm0,36h6V54h-6V42ZM248,27h12v6H248V27Zm36,0h12v6H284V27Zm2.847-16.093,4.243,4.242-8.484,8.486-4.243-4.242ZM261.394,36.365l4.243,4.242-8.484,8.486-4.243-4.242ZM257.149,10.91l8.486,8.484-4.242,4.243-8.486-8.484Zm25.458,25.453,8.486,8.484-4.242,4.243-8.486-8.484Z" transform="translate(-248 -6)"/>
</svg>
