<svg id="gears.svg" xmlns="http://www.w3.org/2000/svg" width="45" height="51" viewBox="0 0 45 51">
  <defs>
    <style>
      .cls-1, .cls-2 {
        fill: #fff;
        fill-rule: evenodd;
      }

      .cls-2 {
        fill-opacity: 0.85;
      }
    </style>
  </defs>
  <path id="big" class="cls-1" d="M19,26A12,12,0,1,1,7,38,12,12,0,0,1,19,26Zm0,6a6,6,0,1,1-6,6A6,6,0,0,1,19,32ZM17,22h4v8H17V22Zm0,24h4v8H17V46ZM3,36h8v4H3V36Zm24,0h8v4H27V36Zm1.9-10.729L31.727,28.1l-5.656,5.657-2.829-2.828ZM11.929,42.243l2.829,2.828L9.1,50.729,6.273,47.9ZM9.1,25.273l5.657,5.656-2.828,2.829L6.271,28.1ZM26.072,42.242L31.729,47.9,28.9,50.727l-5.657-5.656Z" transform="translate(-3 -3)"/>
  <path id="small" class="cls-2" d="M36,6a9,9,0,1,1-9,9A9,9,0,0,1,36,6Zm0,4a5,5,0,1,1-5,5A5,5,0,0,1,36,10ZM34.5,3h3V9h-3V3Zm0,18h3v6h-3V21ZM24,13.5h6v3H24v-3Zm18,0h6v3H42v-3Zm1.424-8.047,2.122,2.121L41.3,11.818,39.182,9.7ZM30.7,18.183L32.819,20.3l-4.242,4.243-2.122-2.121ZM28.575,5.455L32.818,9.7,30.7,11.819,26.453,7.576ZM41.3,18.182l4.243,4.242-2.121,2.122L39.183,20.3Z" transform="translate(-3 -3)"/>
</svg>
