<svg xmlns="http://www.w3.org/2000/svg" xmlns:xlink="http://www.w3.org/1999/xlink" preserveAspectRatio="xMidYMid" width="48" height="48" viewBox="0 0 48 48">
  <defs>
    <style>
      .cls-1 {
        fill: #fff;
        fill-rule: evenodd;
      }
    </style>
  </defs>
  <path d="M48.000,21.000 L48.000,27.000 L41.741,27.000 C41.281,29.731 40.200,32.248 38.658,34.412 L43.093,38.847 L38.851,43.090 L34.412,38.653 C32.247,40.192 29.731,41.271 27.000,41.730 L27.000,48.000 L21.000,48.000 L21.000,41.730 C18.271,41.271 15.755,40.193 13.591,38.655 L9.153,43.093 L4.910,38.851 L9.344,34.415 C7.801,32.250 6.719,29.733 6.259,27.000 L-0.000,27.000 L-0.000,21.000 L6.259,21.000 C6.719,18.269 7.800,15.752 9.342,13.588 L4.907,9.153 L9.149,4.910 L13.588,9.347 C15.753,7.808 18.269,6.729 21.000,6.270 L21.000,-0.000 L27.000,-0.000 L27.000,6.270 C29.729,6.729 32.245,7.807 34.409,9.345 L38.847,4.907 L43.090,9.149 L38.656,13.585 C40.199,15.750 41.281,18.267 41.741,21.000 L48.000,21.000 ZM24.000,15.000 C19.029,15.000 15.000,19.029 15.000,24.000 C15.000,28.971 19.029,33.000 24.000,33.000 C28.971,33.000 33.000,28.971 33.000,24.000 C33.000,19.029 28.971,15.000 24.000,15.000 Z" class="cls-1"/>
</svg>
