<svg xmlns="http://www.w3.org/2000/svg" xmlns:xlink="http://www.w3.org/1999/xlink" preserveAspectRatio="xMidYMid" width="42" height="48" viewBox="0 0 42 48">
  <defs>
    <style>
      .cls-1, .cls-2 {
        fill: #fff;
        fill-rule: evenodd;
      }

      .cls-2 {
        fill-opacity: 0.85;
      }
    </style>
  </defs>
  <g>
    <path d="M31.000,48.000 L24.000,48.000 C21.239,48.000 19.000,45.761 19.000,43.000 L19.000,25.000 C19.000,22.239 21.239,20.000 24.000,20.000 L31.000,20.000 C33.761,20.000 36.000,22.239 36.000,25.000 L36.000,43.000 C36.000,45.761 33.761,48.000 31.000,48.000 ZM31.000,18.000 L5.000,18.000 C2.239,18.000 -0.000,15.761 -0.000,13.000 L-0.000,11.000 C-0.000,8.239 2.239,6.000 5.000,6.000 L31.000,6.000 C33.761,6.000 36.000,8.239 36.000,11.000 L36.000,13.000 C36.000,15.761 33.761,18.000 31.000,18.000 ZM5.000,20.000 L12.000,20.000 C14.761,20.000 17.000,22.239 17.000,25.000 L17.000,43.000 C17.000,45.761 14.761,48.000 12.000,48.000 L5.000,48.000 C2.239,48.000 -0.000,45.761 -0.000,43.000 L-0.000,25.000 C-0.000,22.239 2.239,20.000 5.000,20.000 Z" class="cls-1"/>
    <path d="M38.000,41.899 L38.000,39.445 C39.191,38.752 40.000,37.477 40.000,36.000 L40.000,6.000 C40.000,3.791 38.209,2.000 36.000,2.000 L12.000,2.000 C10.523,2.000 9.248,2.809 8.555,4.000 L6.101,4.000 C6.564,1.718 8.581,-0.000 11.000,-0.000 L37.000,-0.000 C39.761,-0.000 42.000,2.238 42.000,5.000 L42.000,37.000 C42.000,39.419 40.282,41.436 38.000,41.899 Z" class="cls-2"/>
  </g>
</svg>
