<svg id="layouts.svg" xmlns="http://www.w3.org/2000/svg" width="42" height="48" viewBox="0 0 42 48">
  <defs>
    <style>
      .cls-1, .cls-2 {
        fill: #fff;
        fill-rule: evenodd;
      }

      .cls-2 {
        fill-opacity: 0.85;
      }
    </style>
  </defs>
  <path id="first" class="cls-1" d="M148,26h7a5,5,0,0,1,5,5V49a5,5,0,0,1-5,5h-7a5,5,0,0,1-5-5V31A5,5,0,0,1,148,26Zm-19,0h7a5,5,0,0,1,5,5V49a5,5,0,0,1-5,5h-7a5,5,0,0,1-5-5V31A5,5,0,0,1,129,26Zm0-14h26a5,5,0,0,1,5,5v2a5,5,0,0,1-5,5H129a5,5,0,0,1-5-5V17A5,5,0,0,1,129,12Z" transform="translate(-124 -6)"/>
  <path id="second" class="cls-2" d="M135,6h26a5,5,0,0,1,5,5V43a5,5,0,0,1-5,5H135a5,5,0,0,1-5-5V11A5,5,0,0,1,135,6Zm1,2h24a4,4,0,0,1,4,4V42a4,4,0,0,1-4,4H136a4,4,0,0,1-4-4V12A4,4,0,0,1,136,8Zm-6,2h32V48H130V10Z" transform="translate(-124 -6)"/>
</svg>
