<svg id="magnify.svg" xmlns="http://www.w3.org/2000/svg" width="48" height="48.156" viewBox="0 0 48 48.156">
  <defs>
    <style>
      .cls-1 {
        fill: #fff;
        fill-rule: evenodd;
      }
    </style>
  </defs>
  <path id="Icon" class="cls-1" d="M493.828,52.966a4,4,0,0,1-5.657,0l-11.511-11.5a21.1,21.1,0,0,0,5.684-5.629l11.482,11.475A4,4,0,0,1,493.828,52.966ZM465,42a18,18,0,1,1,18-18A18,18,0,0,1,465,42Zm10-27.789V14h-0.211A13.994,13.994,0,0,0,455,33.789V34h0.211a13.978,13.978,0,0,0,19.578,0H475V33.789A13.978,13.978,0,0,0,475,14.211ZM473,26h-6v6a2,2,0,0,1-4,0V26h-6a2,2,0,0,1,0-4h6V16a2,2,0,0,1,4,0v6h6A2,2,0,0,1,473,26Z" transform="translate(-447 -6)"/>
</svg>
