<svg id="pages.svg" xmlns="http://www.w3.org/2000/svg" width="42" height="48" viewBox="0 0 42 48">
  <defs>
    <style>
      .cls-1, .cls-2 {
        fill: #fff;
        fill-rule: evenodd;
      }

      .cls-2 {
        fill-opacity: 0.85;
      }
    </style>
  </defs>
  <path id="first" class="cls-1" d="M96,12H70a5,5,0,0,0-5,5V49a5,5,0,0,0,5,5H96a5,5,0,0,0,5-5V17A5,5,0,0,0,96,12Zm-9,0v8.167A5.834,5.834,0,0,0,92.833,26H101V12H87Zm14,0V24H93a4,4,0,0,1-4-4V12h12ZM89,12l12,12V12H89Z" transform="translate(-65 -6)"/>
  <path id="second" class="cls-2" d="M76,6h26a5,5,0,0,1,5,5V43a5,5,0,0,1-5,5H76a5,5,0,0,1-5-5V11A5,5,0,0,1,76,6Zm1,2h24a4,4,0,0,1,4,4V42a4,4,0,0,1-4,4H77a4,4,0,0,1-4-4V12A4,4,0,0,1,77,8Zm-6,2h32V48H71V10Z" transform="translate(-65 -6)"/>
</svg>
