<svg id="palette.svg" xmlns="http://www.w3.org/2000/svg" width="48" height="47.625" viewBox="0 0 48 47.625">
  <defs>
    <style>
      .cls-1 {
        fill: #fff;
        fill-rule: evenodd;
      }
    </style>
  </defs>
  <path class="cls-1" d="M183,28c-0.04-9.933,7.834-22.176,25-22,16.167,0.166,22.952,10.653,23,21,0.062,13.465-27.333,5-28,13s11.152,5.849,7,12C206.308,57.47,183.085,48.925,183,28Zm8-5a3,3,0,1,1-3,3A3,3,0,0,1,191,23Zm6-9a3,3,0,1,1-3,3A3,3,0,0,1,197,14Zm10-4a3,3,0,1,1-3,3A3,3,0,0,1,207,10Zm10,3a3,3,0,1,1-3,3A3,3,0,0,1,217,13Zm6,8a3,3,0,1,1-3,3A3,3,0,0,1,223,21Z" transform="translate(-183 -6)"/>
</svg>
