<svg id="quicksilk.svg" xmlns="http://www.w3.org/2000/svg" width="52" height="48" viewBox="0 0 52 48">
  <defs>
    <style>
      .cls-1 {
        fill: #fff;
        fill-rule: evenodd;
      }
    </style>
  </defs>
  <path id="Icon" class="cls-1" d="M430,53.94c-1.074,0-2.148,0-3.286-.063-5.94-.251-8.908-2.313-10.616-3.751A24.743,24.743,0,0,1,402.64,54C387.6,54,378,42.189,378,30.186A24.139,24.139,0,0,1,402.513,6c14.66,0,24.768,11.376,24.768,23.752,0,8.251-3.347,12.561-4.928,14.562,2.023,1.5,4.108,1.938,7.646,2.124v7.5ZM402.513,14.184c-7.2,0-13.078,4.814-14.531,12.315a14.228,14.228,0,0,0,0,3.314,24.8,24.8,0,0,1,7.835-1.44,18.935,18.935,0,0,1,10.931,3.19,61.531,61.531,0,0,1,8.276,6.812,13.387,13.387,0,0,0,2.843-8.624c0-9.379-7.014-15.567-15.29-15.567h-0.064Zm0.127,31.63a13.288,13.288,0,0,0,6.76-1.687,43.286,43.286,0,0,0-4.928-4.562,15.623,15.623,0,0,0-9.6-3.252,15.8,15.8,0,0,0-5.75,1c2.909,6.438,9.417,8.5,13.46,8.5h0.063Z" transform="translate(-378 -6)"/>
</svg>
