<svg id="reduce.svg" xmlns="http://www.w3.org/2000/svg" width="48" height="48.156" viewBox="0 0 48 48.156">
  <defs>
    <style>
      .cls-1 {
        fill: #fff;
        fill-rule: evenodd;
      }
    </style>
  </defs>
  <path id="Icon" class="cls-1" d="M558.828,52.966a4,4,0,0,1-5.657,0l-11.511-11.5a21.1,21.1,0,0,0,5.684-5.629l11.482,11.475A4,4,0,0,1,558.828,52.966ZM530,42a18,18,0,1,1,18-18A18,18,0,0,1,530,42Zm10-27.789V14h-0.211A13.994,13.994,0,0,0,520,33.789V34h0.211a13.978,13.978,0,0,0,19.578,0H540V33.789A13.978,13.978,0,0,0,540,14.211ZM522,26a2,2,0,0,1,0-4h16a2,2,0,0,1,0,4H522Z" transform="translate(-512 -6)"/>
</svg>
