<svg id="tablet.svg" xmlns="http://www.w3.org/2000/svg" width="28" height="32" viewBox="0 0 28 32">
  <defs>
    <style>
      .cls-1 {
        fill: #fff;
        fill-rule: evenodd;
      }
    </style>
  </defs>
  <path id="icon" class="cls-1" d="M693,14h24a2,2,0,0,1,2,2V44a2,2,0,0,1-2,2H693a2,2,0,0,1-2-2V16A2,2,0,0,1,693,14Zm1,3h22a1,1,0,0,1,1,1V42a1,1,0,0,1-1,1H694a1,1,0,0,1-1-1V18A1,1,0,0,1,694,17Zm10.5,27h1a0.5,0.5,0,0,1,0,1h-1A0.5,0.5,0,0,1,704.5,44Zm0-29h1a0.5,0.5,0,0,1,0,1h-1A0.5,0.5,0,0,1,704.5,15Z" transform="translate(-691 -14)"/>
</svg>
