<svg xmlns="http://www.w3.org/2000/svg" xmlns:xlink="http://www.w3.org/1999/xlink" preserveAspectRatio="xMidYMid" width="24" height="24" viewBox="0 0 24 24">
  <defs>
    <style>

      .cls-2 {
        fill: #ffffff;
      }
    </style>
  </defs>
  <path d="M12.000,24.000 C5.373,24.000 0.000,18.627 0.000,12.000 C0.000,5.373 5.373,0.000 12.000,0.000 C18.627,0.000 24.000,5.373 24.000,12.000 C24.000,18.627 18.627,24.000 12.000,24.000 ZM12.000,2.000 C6.477,2.000 2.000,6.477 2.000,12.000 C2.000,17.523 6.477,22.000 12.000,22.000 C17.523,22.000 22.000,17.523 22.000,12.000 C22.000,6.477 17.523,2.000 12.000,2.000 ZM15.000,17.000 C15.000,17.000 12.000,13.667 12.000,13.667 C12.000,13.667 9.000,17.000 9.000,17.000 C9.000,17.000 6.000,17.000 6.000,17.000 C6.000,17.000 10.500,12.000 10.500,12.000 C10.500,12.000 6.000,7.000 6.000,7.000 C6.000,7.000 9.000,7.000 9.000,7.000 C9.000,7.000 12.000,10.333 12.000,10.333 C12.000,10.333 15.000,7.000 15.000,7.000 C15.000,7.000 18.000,7.000 18.000,7.000 C18.000,7.000 13.500,12.000 13.500,12.000 C13.500,12.000 18.000,17.000 18.000,17.000 C18.000,17.000 15.000,17.000 15.000,17.000 Z" id="path-1" class="cls-2" fill-rule="evenodd"/>
</svg>
