<svg xmlns="http://www.w3.org/2000/svg" xmlns:xlink="http://www.w3.org/1999/xlink" preserveAspectRatio="xMidYMid" width="24" height="24" viewBox="0 0 24 24">
  <defs>
    <style>

      .cls-2 {
        fill: #ffffff;
      }
    </style>
  </defs>
  <path d="M12.000,24.000 C5.373,24.000 0.000,18.627 0.000,12.000 C0.000,5.373 5.373,0.000 12.000,0.000 C18.627,0.000 24.000,5.373 24.000,12.000 C24.000,18.627 18.627,24.000 12.000,24.000 ZM12.000,2.000 C6.477,2.000 2.000,6.477 2.000,12.000 C2.000,17.523 6.477,22.000 12.000,22.000 C17.523,22.000 22.000,17.523 22.000,12.000 C22.000,6.477 17.523,2.000 12.000,2.000 ZM14.000,17.000 C14.000,17.000 11.000,17.000 11.000,17.000 C11.000,17.000 6.000,12.000 6.000,12.000 C6.000,12.000 11.000,7.000 11.000,7.000 C11.000,7.000 14.000,7.000 14.000,7.000 C14.000,7.000 10.000,11.000 10.000,11.000 C10.000,11.000 18.000,11.000 18.000,11.000 C18.000,11.000 18.000,13.000 18.000,13.000 C18.000,13.000 10.000,13.000 10.000,13.000 C10.000,13.000 14.000,17.000 14.000,17.000 Z" id="path-1" class="cls-2" fill-rule="evenodd"/>
</svg>
