<svg xmlns="http://www.w3.org/2000/svg" xmlns:xlink="http://www.w3.org/1999/xlink" preserveAspectRatio="xMidYMid" width="48" height="48" viewBox="0 0 48 48">
  <defs>
    <style>

      .cls-3 {
        fill: #ffffff;
      }

      .cls-4 {
        fill: #ffffff;
        stroke: #ff0000;
      }
    </style>
  </defs>
  <g id="circle-startsvg">
    <path d="M24.000,48.000 C10.745,48.000 -0.000,37.255 -0.000,24.000 C-0.000,10.745 10.745,-0.000 24.000,-0.000 C37.255,-0.000 48.000,10.745 48.000,24.000 C48.000,37.255 37.255,48.000 24.000,48.000 ZM24.000,3.000 C12.402,3.000 3.000,12.402 3.000,24.000 C3.000,35.598 12.402,45.000 24.000,45.000 C35.598,45.000 45.000,35.598 45.000,24.000 C45.000,12.402 35.598,3.000 24.000,3.000 Z" id="path-1" class="cls-3" fill-rule="evenodd"/>
    <path d="M24.000,11.001 C24.000,11.001 28.285,19.171 28.285,19.171 C28.285,19.171 36.998,20.931 36.998,20.931 C36.998,20.931 30.933,27.741 30.933,27.741 C30.933,27.741 32.033,36.999 32.033,36.999 C32.033,36.999 24.000,33.037 24.000,33.037 C24.000,33.037 15.967,36.999 15.967,36.999 C15.967,36.999 17.068,27.741 17.068,27.741 C17.068,27.741 11.002,20.931 11.002,20.931 C11.002,20.931 19.716,19.171 19.716,19.171 C19.716,19.171 24.000,11.001 24.000,11.001 M21.231,21.356 C21.231,21.356 15.568,22.501 15.568,22.501 C15.568,22.501 19.510,26.927 19.510,26.927 C19.510,26.927 18.795,32.945 18.795,32.945 C18.795,32.945 24.016,30.370 24.016,30.370 C24.016,30.370 29.238,32.945 29.238,32.945 C29.238,32.945 28.523,26.927 28.523,26.927 C28.523,26.927 32.465,22.501 32.465,22.501 C32.465,22.501 26.801,21.356 26.801,21.356 C26.801,21.356 24.016,16.046 24.016,16.046 C24.016,16.046 21.231,21.356 21.231,21.356 " id="path-2" class="cls-4" fill-rule="evenodd"/>
  </g>
</svg>
