<svg xmlns="http://www.w3.org/2000/svg" xmlns:xlink="http://www.w3.org/1999/xlink" preserveAspectRatio="xMidYMid" width="48" height="48" viewBox="0 0 48 48">
  <defs>
    <style>

      .cls-3 {
        fill: #ffffff;
      }

      .cls-4 {
        fill: #ffffff;
        stroke: #ff0000;
      }
    </style>
  </defs>
  <g id="circle-flashsvg">
    <path d="M24.000,48.000 C10.745,48.000 -0.000,37.255 -0.000,24.000 C-0.000,10.745 10.745,-0.000 24.000,-0.000 C37.255,-0.000 48.000,10.745 48.000,24.000 C48.000,37.255 37.255,48.000 24.000,48.000 ZM24.000,3.000 C12.402,3.000 3.000,12.402 3.000,24.000 C3.000,35.598 12.402,45.000 24.000,45.000 C35.598,45.000 45.000,35.598 45.000,24.000 C45.000,12.402 35.598,3.000 24.000,3.000 Z" id="path-1" class="cls-3" fill-rule="evenodd"/>
    <path d="M12.000,37.000 C12.000,37.000 21.000,24.000 21.000,24.000 C21.000,24.000 15.000,23.000 15.000,23.000 C15.000,23.000 28.000,11.000 28.000,11.000 C28.000,11.000 36.000,11.000 36.000,11.000 C36.000,11.000 25.000,21.000 25.000,21.000 C25.000,21.000 32.000,23.000 32.000,23.000 C32.000,23.000 12.000,37.000 12.000,37.000 Z" id="path-2" class="cls-4" fill-rule="evenodd"/>
  </g>
</svg>
