<svg xmlns="http://www.w3.org/2000/svg" xmlns:xlink="http://www.w3.org/1999/xlink" preserveAspectRatio="xMidYMid" width="48" height="48" viewBox="0 0 48 48">
  <defs>
    <style>

      .cls-3 {
        fill: #ffffff;
      }
    </style>
  </defs>
  <g id="circle-flashsvg">
    <path d="M24.000,48.000 C10.745,48.000 0.000,37.255 0.000,24.000 C0.000,10.745 10.745,0.000 24.000,0.000 C37.255,0.000 48.000,10.745 48.000,24.000 C48.000,37.255 37.255,48.000 24.000,48.000 ZM24.000,3.000 C12.402,3.000 3.000,12.402 3.000,24.000 C3.000,35.598 12.402,45.000 24.000,45.000 C35.598,45.000 45.000,35.598 45.000,24.000 C45.000,12.402 35.598,3.000 24.000,3.000 Z" id="path-1" class="cls-3" fill-rule="evenodd"/>
    <path d="M24.000,37.000 C24.000,37.000 23.000,37.000 23.000,37.000 C23.000,37.000 23.000,26.000 23.000,26.000 C23.000,26.000 15.000,26.000 15.000,26.000 C15.000,26.000 15.000,25.000 15.000,25.000 C15.000,25.000 25.000,11.000 25.000,11.000 C25.000,11.000 26.000,11.000 26.000,11.000 C26.000,11.000 26.000,22.000 26.000,22.000 C26.000,22.000 33.000,22.000 33.000,22.000 C33.000,22.000 33.000,23.000 33.000,23.000 C33.000,23.000 24.000,37.000 24.000,37.000 Z" id="path-2" class="cls-3" fill-rule="evenodd"/>
  </g>
</svg>
