<svg xmlns="http://www.w3.org/2000/svg" xmlns:xlink="http://www.w3.org/1999/xlink" preserveAspectRatio="xMidYMid" width="45" height="51" viewBox="0 0 45 51">
  <defs>
    <style>

      .cls-3 {
        fill: #ffffff;
      }

      .cls-4 {
        fill: #ffffff;
        fill-opacity: 0.85;
      }
    </style>
  </defs>
  <g id="gearssvg">
    <path d="M32.000,33.000 C32.000,33.000 32.000,37.000 32.000,37.000 C32.000,37.000 27.827,37.000 27.827,37.000 C27.521,38.820 26.795,40.494 25.767,41.937 C25.767,41.937 28.729,44.898 28.729,44.898 C28.729,44.898 25.901,47.727 25.901,47.727 C25.901,47.727 22.936,44.763 22.936,44.763 C21.493,45.789 19.820,46.514 18.000,46.820 C18.000,46.820 18.000,51.000 18.000,51.000 C18.000,51.000 14.000,51.000 14.000,51.000 C14.000,51.000 14.000,46.820 14.000,46.820 C12.181,46.514 10.508,45.790 9.066,44.765 C9.066,44.765 6.102,47.729 6.102,47.729 C6.102,47.729 3.273,44.901 3.273,44.901 C3.273,44.901 6.235,41.939 6.235,41.939 C5.206,40.495 4.479,38.821 4.173,37.000 C4.173,37.000 -0.000,37.000 -0.000,37.000 C-0.000,37.000 -0.000,33.000 -0.000,33.000 C-0.000,33.000 4.173,33.000 4.173,33.000 C4.479,31.180 5.205,29.506 6.233,28.063 C6.233,28.063 3.271,25.102 3.271,25.102 C3.271,25.102 6.099,22.273 6.099,22.273 C6.099,22.273 9.064,25.237 9.064,25.237 C10.507,24.211 12.180,23.486 14.000,23.180 C14.000,23.180 14.000,19.000 14.000,19.000 C14.000,19.000 18.000,19.000 18.000,19.000 C18.000,19.000 18.000,23.180 18.000,23.180 C19.819,23.486 21.492,24.210 22.934,25.235 C22.934,25.235 25.898,22.271 25.898,22.271 C25.898,22.271 28.727,25.099 28.727,25.099 C28.727,25.099 25.765,28.061 25.765,28.061 C26.794,29.505 27.521,31.179 27.827,33.000 C27.827,33.000 32.000,33.000 32.000,33.000 ZM16.000,29.000 C12.686,29.000 10.000,31.686 10.000,35.000 C10.000,38.314 12.686,41.000 16.000,41.000 C19.314,41.000 22.000,38.314 22.000,35.000 C22.000,31.686 19.314,29.000 16.000,29.000 Z" id="path-1" class="cls-3" fill-rule="evenodd"/>
    <path d="M45.000,10.500 C45.000,10.500 45.000,13.500 45.000,13.500 C45.000,13.500 41.864,13.500 41.864,13.500 C41.634,14.864 41.091,16.118 40.322,17.199 C40.322,17.199 42.547,19.424 42.547,19.424 C42.547,19.424 40.426,21.545 40.426,21.545 C40.426,21.545 38.201,19.321 38.201,19.321 C37.120,20.091 35.865,20.635 34.500,20.865 C34.500,20.865 34.500,24.000 34.500,24.000 C34.500,24.000 31.500,24.000 31.500,24.000 C31.500,24.000 31.500,20.865 31.500,20.865 C30.135,20.636 28.882,20.092 27.800,19.322 C27.800,19.322 25.576,21.547 25.576,21.547 C25.576,21.547 23.455,19.426 23.455,19.426 C23.455,19.426 25.679,17.201 25.679,17.201 C24.909,16.119 24.366,14.865 24.136,13.500 C24.136,13.500 21.000,13.500 21.000,13.500 C21.000,13.500 21.000,10.500 21.000,10.500 C21.000,10.500 24.136,10.500 24.136,10.500 C24.366,9.136 24.909,7.882 25.678,6.801 C25.678,6.801 23.453,4.576 23.453,4.576 C23.453,4.576 25.574,2.455 25.574,2.455 C25.574,2.455 27.799,4.679 27.799,4.679 C28.880,3.909 30.135,3.365 31.500,3.135 C31.500,3.135 31.500,-0.000 31.500,-0.000 C31.500,-0.000 34.500,-0.000 34.500,-0.000 C34.500,-0.000 34.500,3.135 34.500,3.135 C35.865,3.364 37.119,3.908 38.200,4.678 C38.200,4.678 40.424,2.453 40.424,2.453 C40.424,2.453 42.545,4.574 42.545,4.574 C42.545,4.574 40.321,6.799 40.321,6.799 C41.091,7.881 41.634,9.135 41.864,10.500 C41.864,10.500 45.000,10.500 45.000,10.500 ZM33.000,7.000 C30.239,7.000 28.000,9.239 28.000,12.000 C28.000,14.761 30.239,17.000 33.000,17.000 C35.761,17.000 38.000,14.761 38.000,12.000 C38.000,9.239 35.761,7.000 33.000,7.000 Z" id="path-2" class="cls-4" fill-rule="evenodd"/>
  </g>
</svg>
