<svg xmlns="http://www.w3.org/2000/svg" xmlns:xlink="http://www.w3.org/1999/xlink" preserveAspectRatio="xMidYMid" width="48" height="48.156" viewBox="0 0 48 48.156">
  <defs>
    <style>
      .cls-1 {
        fill: #fff;
        fill-rule: evenodd;
      }
    </style>
  </defs>
  <path d="M46.828,46.966 C45.266,48.529 42.733,48.529 41.171,46.967 L29.660,35.463 C31.896,33.967 33.827,32.054 35.344,29.834 L46.826,41.309 C48.389,42.871 48.389,45.403 46.828,46.966 ZM18.000,36.000 C8.059,36.000 0.000,27.941 0.000,18.000 C0.000,8.059 8.059,-0.000 18.000,-0.000 C27.941,-0.000 36.000,8.059 36.000,18.000 C36.000,27.941 27.941,36.000 18.000,36.000 ZM28.000,8.211 L28.000,8.000 L27.789,8.000 C25.264,5.528 21.812,4.000 18.000,4.000 C10.268,4.000 4.000,10.268 4.000,18.000 C4.000,21.812 5.528,25.264 8.000,27.789 L8.000,28.000 L8.211,28.000 C10.736,30.472 14.188,32.000 18.000,32.000 C21.812,32.000 25.264,30.472 27.789,28.000 L28.000,28.000 L28.000,27.789 C30.472,25.264 32.000,21.812 32.000,18.000 C32.000,14.188 30.472,10.736 28.000,8.211 ZM26.000,20.000 L20.000,20.000 L20.000,26.000 C20.000,27.105 19.105,28.000 18.000,28.000 C16.895,28.000 16.000,27.105 16.000,26.000 L16.000,20.000 L10.000,20.000 C8.895,20.000 8.000,19.105 8.000,18.000 C8.000,16.895 8.895,16.000 10.000,16.000 L16.000,16.000 L16.000,10.000 C16.000,8.895 16.895,8.000 18.000,8.000 C19.105,8.000 20.000,8.895 20.000,10.000 L20.000,16.000 L26.000,16.000 C27.105,16.000 28.000,16.895 28.000,18.000 C28.000,19.105 27.105,20.000 26.000,20.000 Z" class="cls-1"/>
</svg>
