<svg xmlns="http://www.w3.org/2000/svg" xmlns:xlink="http://www.w3.org/1999/xlink" preserveAspectRatio="xMidYMid" width="42" height="48" viewBox="0 0 42 48">
  <defs>
    <style>

      .cls-3 {
        fill: #ffffff;
      }

      .cls-4 {
        fill: #ffffff;
        fill-opacity: 0.85;
      }
    </style>
  </defs>
  <g id="pagessvg">
    <path d="M31.000,48.000 C31.000,48.000 5.000,48.000 5.000,48.000 C2.239,48.000 0.000,45.761 0.000,43.000 C0.000,43.000 0.000,11.000 0.000,11.000 C0.000,8.238 2.239,6.000 5.000,6.000 C5.000,6.000 24.000,6.000 24.000,6.000 C24.000,6.000 31.000,6.000 31.000,6.000 C31.000,6.000 36.000,6.000 36.000,6.000 C36.000,6.000 36.000,11.000 36.000,11.000 C36.000,11.000 36.000,16.000 36.000,16.000 C36.000,16.000 36.000,6.000 36.000,6.000 C36.000,6.000 26.000,6.000 26.000,6.000 C26.000,6.000 36.000,16.000 36.000,16.000 C36.000,16.000 36.000,18.000 36.000,18.000 C36.000,18.000 36.000,43.000 36.000,43.000 C36.000,45.761 33.761,48.000 31.000,48.000 ZM34.000,18.000 C34.000,18.000 29.000,18.000 29.000,18.000 C26.239,18.000 24.000,15.761 24.000,13.000 C24.000,13.000 24.000,8.000 24.000,8.000 C24.000,8.000 6.000,8.000 6.000,8.000 C3.791,8.000 2.000,9.791 2.000,12.000 C2.000,12.000 2.000,42.000 2.000,42.000 C2.000,44.209 3.791,46.000 6.000,46.000 C6.000,46.000 30.000,46.000 30.000,46.000 C32.209,46.000 34.000,44.209 34.000,42.000 C34.000,42.000 34.000,18.000 34.000,18.000 Z" id="path-1" class="cls-3" fill-rule="evenodd"/>
    <path d="M38.000,41.899 C38.000,41.899 38.000,39.445 38.000,39.445 C39.191,38.752 40.000,37.477 40.000,36.000 C40.000,36.000 40.000,6.000 40.000,6.000 C40.000,3.791 38.209,2.000 36.000,2.000 C36.000,2.000 12.000,2.000 12.000,2.000 C10.523,2.000 9.248,2.809 8.555,4.000 C8.555,4.000 6.101,4.000 6.101,4.000 C6.564,1.718 8.581,-0.000 11.000,-0.000 C11.000,-0.000 37.000,-0.000 37.000,-0.000 C39.761,-0.000 42.000,2.238 42.000,5.000 C42.000,5.000 42.000,37.000 42.000,37.000 C42.000,39.419 40.282,41.436 38.000,41.899 ZM6.000,37.000 C6.000,37.000 6.000,37.000 6.000,37.000 C6.000,37.000 6.000,5.000 6.000,5.000 C6.000,5.000 6.000,5.000 6.000,5.000 C6.000,5.000 6.000,37.000 6.000,37.000 Z" id="path-2" class="cls-4" fill-rule="evenodd"/>
  </g>
</svg>
