<svg xmlns="http://www.w3.org/2000/svg" xmlns:xlink="http://www.w3.org/1999/xlink" preserveAspectRatio="xMidYMid" width="42" height="48" viewBox="0 0 42 48">
  <defs>
    <style>
      .cls-1, .cls-2 {
        fill: #fff;
        fill-rule: evenodd;
      }

      .cls-2 {
        fill-opacity: 0.85;
      }
    </style>
  </defs>
  <g>
    <path d="M31.000,48.000 L5.000,48.000 C2.239,48.000 0.000,45.761 0.000,43.000 L0.000,11.000 C0.000,8.238 2.239,6.000 5.000,6.000 L22.000,6.000 L22.000,14.167 C22.000,17.388 24.612,20.000 27.833,20.000 L36.000,20.000 L36.000,43.000 C36.000,45.761 33.761,48.000 31.000,48.000 ZM24.000,14.000 L24.000,6.000 L36.000,18.000 L28.000,18.000 C25.791,18.000 24.000,16.209 24.000,14.000 Z" class="cls-1"/>
    <path d="M38.000,41.899 L38.000,39.445 C39.191,38.752 40.000,37.477 40.000,36.000 L40.000,6.000 C40.000,3.791 38.209,2.000 36.000,2.000 L12.000,2.000 C10.523,2.000 9.248,2.809 8.555,4.000 L6.101,4.000 C6.564,1.718 8.581,-0.000 11.000,-0.000 L37.000,-0.000 C39.761,-0.000 42.000,2.238 42.000,5.000 L42.000,37.000 C42.000,39.419 40.282,41.436 38.000,41.899 Z" class="cls-2"/>
  </g>
</svg>
