<svg xmlns="http://www.w3.org/2000/svg" xmlns:xlink="http://www.w3.org/1999/xlink" preserveAspectRatio="xMidYMid" width="48" height="48" viewBox="0 0 48 48">
  <defs>
    <style>

      .cls-3 {
        fill: #ffffff;
      }
    </style>
  </defs>
  <g id="palettesvg">
    <path d="M20.000,34.000 C19.333,41.999 31.152,39.849 27.000,46.000 C23.308,51.470 0.085,42.925 0.000,22.000 C-0.040,12.067 7.834,-0.176 25.000,-0.000 C41.167,0.166 47.952,10.653 48.000,21.000 C48.062,34.465 20.667,26.001 20.000,34.000 ZM8.000,17.000 C6.343,17.000 5.000,18.343 5.000,20.000 C5.000,21.657 6.343,23.000 8.000,23.000 C9.657,23.000 11.000,21.657 11.000,20.000 C11.000,18.343 9.657,17.000 8.000,17.000 ZM14.000,8.000 C12.343,8.000 11.000,9.343 11.000,11.000 C11.000,12.657 12.343,14.000 14.000,14.000 C15.657,14.000 17.000,12.657 17.000,11.000 C17.000,9.343 15.657,8.000 14.000,8.000 ZM24.000,4.000 C22.343,4.000 21.000,5.343 21.000,7.000 C21.000,8.657 22.343,10.000 24.000,10.000 C25.657,10.000 27.000,8.657 27.000,7.000 C27.000,5.343 25.657,4.000 24.000,4.000 ZM34.000,7.000 C32.343,7.000 31.000,8.343 31.000,10.000 C31.000,11.657 32.343,13.000 34.000,13.000 C35.657,13.000 37.000,11.657 37.000,10.000 C37.000,8.343 35.657,7.000 34.000,7.000 ZM40.000,15.000 C38.343,15.000 37.000,16.343 37.000,18.000 C37.000,19.657 38.343,21.000 40.000,21.000 C41.657,21.000 43.000,19.657 43.000,18.000 C43.000,16.343 41.657,15.000 40.000,15.000 Z" id="path-1" class="cls-3" fill-rule="evenodd"/>
  </g>
</svg>
