<svg xmlns="http://www.w3.org/2000/svg" xmlns:xlink="http://www.w3.org/1999/xlink" preserveAspectRatio="xMidYMid" width="48" height="48" viewBox="0 0 48 48">
  <defs>
    <style>
      .cls-1 {
        fill: #fff;
        fill-rule: evenodd;
      }
    </style>
  </defs>
  <path d="M45.000,28.000 L28.000,28.000 L28.000,45.000 C28.000,46.657 26.657,48.000 25.000,48.000 L23.000,48.000 C21.343,48.000 20.000,46.657 20.000,45.000 L20.000,28.000 L3.000,28.000 C1.343,28.000 -0.000,26.657 -0.000,25.000 L-0.000,23.000 C-0.000,21.343 1.343,20.000 3.000,20.000 L20.000,20.000 L20.000,3.000 C20.000,1.343 21.343,-0.000 23.000,-0.000 L25.000,-0.000 C26.657,-0.000 28.000,1.343 28.000,3.000 L28.000,20.000 L45.000,20.000 C46.657,20.000 48.000,21.343 48.000,23.000 L48.000,25.000 C48.000,26.657 46.657,28.000 45.000,28.000 Z" class="cls-1"/>
</svg>
