<svg id="chain-angle--light.svg" xmlns="http://www.w3.org/2000/svg" width="18.062" height="18" viewBox="0 0 18.062 18">
  <defs>
    <style>
      .cls-1 {
        fill: #fff;
        fill-rule: evenodd;
      }
    </style>
  </defs>
  <path id="Icon" class="cls-1" d="M31.983,22.093l-4.37,4.38a4.136,4.136,0,0,1-5.8-.283,4.685,4.685,0,0,1-.372-0.44,0.936,0.936,0,0,1-.241-0.164,0.814,0.814,0,0,1-.067-1.151,0.827,0.827,0,0,1,1.16.056h0l0.1-.1a2.811,2.811,0,0,0,.513.7,2.482,2.482,0,0,0,3.479.17l4.37-4.38a2.443,2.443,0,0,0-.2-3.454,2.481,2.481,0,0,0-3.479-.169l-2.294,2.3L22.9,19.009l2.95-2.956a4.136,4.136,0,0,1,5.8.283A4.071,4.071,0,0,1,31.983,22.093Zm-5.8-.283a4.648,4.648,0,0,1,.372.439,0.938,0.938,0,0,1,.241.165,0.814,0.814,0,0,1,.067,1.152,0.827,0.827,0,0,1-1.16-.057l-0.1.1a2.805,2.805,0,0,0-.513-0.7,2.481,2.481,0,0,0-3.479-.17l-4.37,4.38a2.443,2.443,0,0,0,.2,3.455,2.482,2.482,0,0,0,3.479.17l2.294-2.3L25.1,28.991l-2.95,2.956a4.136,4.136,0,0,1-5.8-.282,4.071,4.071,0,0,1-.336-5.757l4.37-4.38A4.136,4.136,0,0,1,26.185,21.81Z" transform="translate(-14.969 -15)"/>
</svg>
