<svg id="repeat-horizontal.svg" xmlns="http://www.w3.org/2000/svg" width="38" height="38" viewBox="0 0 38 38">
  <defs>
    <style>
      .cls-1, .cls-2, .cls-3 {
        fill: #fff;
        fill-rule: evenodd;
      }

      .cls-1 {
        opacity: 0.85;
      }

      .cls-2 {
        opacity: 0.35;
      }

      .cls-3 {
        opacity: 0.75;
      }
    </style>
  </defs>
  <path id="_3" data-name="3" class="cls-1" d="M5,43V5H43V43H5Zm8-26a3,3,0,0,0-3-3H5V34h5a3,3,0,0,0,3-3V17Zm21,0a3,3,0,0,0-3-3H17a3,3,0,0,0-3,3V31a3,3,0,0,0,3,3H31a3,3,0,0,0,3-3V17Zm9-3H38a3,3,0,0,0-3,3V31a3,3,0,0,0,3,3h5V14ZM30.505,20a2.5,2.5,0,0,1-.063-5h0.125A2.494,2.494,0,0,1,33,17.444v0.1A2.5,2.5,0,0,1,30.505,20Zm2.459,11.357A2,2,0,0,1,31,33H17a2,2,0,0,1-1.935-1.519L21,23l6,9,3.6-4.416Z" transform="translate(-5 -5)"/>
  <path id="_2" data-name="2" class="cls-2" d="M5,14h5a3,3,0,0,1,3,3V31a3,3,0,0,1-3,3H5V14ZM35,31V17a3,3,0,0,1,3-3h5V34H38A3,3,0,0,1,35,31Z" transform="translate(-5 -5)"/>
  <path id="_1" data-name="1" class="cls-3" d="M43,33H38a2,2,0,0,1-1.935-1.519L42,23l1,1.5V33ZM9.505,20a2.5,2.5,0,0,1-.063-5H9.568A2.494,2.494,0,0,1,12,17.444v0.1A2.5,2.5,0,0,1,9.505,20ZM5,30.5L6,32l3.6-4.416,2.368,3.77A2,2,0,0,1,10,33H5V30.5Z" transform="translate(-5 -5)"/>
</svg>
