<svg xmlns="http://www.w3.org/2000/svg" width="24" height="24" viewBox="0 0 24 24">
  <defs>
    <style>
      .cls-1 {
        fill: #fff;
        fill-rule: evenodd;
      }
    </style>
  </defs>
  <path id="circle-close-white.svg" class="cls-1" d="M123,92a12,12,0,1,1,12-12A12,12,0,0,1,123,92Zm0-22a10,10,0,1,0,10,10A10,10,0,0,0,123,70Zm4.95,14.95a1,1,0,0,1-1.414,0L123,81.414l-3.536,3.536a1,1,0,0,1-1.414-1.414L121.586,80l-3.536-3.535a1,1,0,0,1,1.414-1.414L123,78.586l3.536-3.536a1,1,0,1,1,1.414,1.414L124.414,80l3.536,3.535A1,1,0,0,1,127.95,84.95Z" transform="translate(-111 -68)"/>
</svg>
