<svg id="repeat-vertical.svg" xmlns="http://www.w3.org/2000/svg" width="38" height="38" viewBox="0 0 38 38">
  <defs>
    <style>
      .cls-1, .cls-2, .cls-3 {
        fill: #fff;
        fill-rule: evenodd;
      }

      .cls-1 {
        opacity: 0.85;
      }

      .cls-2 {
        opacity: 0.35;
      }

      .cls-3 {
        opacity: 0.75;
      }
    </style>
  </defs>
  <path id="_3" data-name="3" class="cls-1" d="M34,43V38a3,3,0,0,0-3-3H17a3,3,0,0,0-3,3v5H5V5h9v5a3,3,0,0,0,3,3H31a3,3,0,0,0,3-3V5h9V43H34Zm0-26a3,3,0,0,0-3-3H17a3,3,0,0,0-3,3V31a3,3,0,0,0,3,3H31a3,3,0,0,0,3-3V17Zm-3.495,3a2.5,2.5,0,0,1-.063-5h0.125A2.494,2.494,0,0,1,33,17.444v0.1A2.5,2.5,0,0,1,30.505,20Zm2.459,11.357A2,2,0,0,1,31,33H17a2,2,0,0,1-1.935-1.519L21,23l6,9,3.6-4.416Z" transform="translate(-5 -5)"/>
  <path id="_2" data-name="2" class="cls-2" d="M14,43V38a3,3,0,0,1,3-3H31a3,3,0,0,1,3,3v5H14ZM31,13H17a3,3,0,0,1-3-3V5H34v5A3,3,0,0,1,31,13Z" transform="translate(-5 -5)"/>
  <path id="_1" data-name="1" class="cls-3" d="M30.505,41a2.5,2.5,0,0,1-.063-5h0.125A2.494,2.494,0,0,1,33,38.444v0.1A2.5,2.5,0,0,1,30.505,41ZM27,11l3.6-4.416,2.368,3.77A2,2,0,0,1,31,12H17a2,2,0,0,1-1.935-1.519L18.9,5H23Z" transform="translate(-5 -5)"/>
</svg>
