<svg id="cart.svg" xmlns="http://www.w3.org/2000/svg" width="48" height="42" viewBox="0 0 48 42"><defs><style>.cls-1,.cls-2{fill:#5e5e5e;fill-rule:evenodd}.cls-1{opacity:.25}</style></defs><path id="bg" class="cls-1" d="M108.094 13l4.781 12h28.031V13h-32.812z" transform="translate(-96 -4)"/><path id="icon" class="cls-2" d="M96 7h6l12 30h30v-3h-26.813l-2.437-6H144V10h-36.563L105 4h-9v3zm21 33a3 3 0 1 1-3 3 3 3 0 0 1 3-3zm24 0a3 3 0 1 1-3 3 3 3 0 0 1 3-3zm-32.25-27l4.781 12H141V13h-32.25z" transform="translate(-96 -4)"/></svg>