<svg id="chain-angle.svg" xmlns="http://www.w3.org/2000/svg" width="18.062" height="18" viewBox="0 0 18.062 18"><defs><style>.cls-1{fill:#5e5e5e;fill-rule:evenodd}</style></defs><path id="Icon" class="cls-1" d="M17.014 7.093l-4.37 4.38a4.136 4.136 0 0 1-5.8-.283 4.7 4.7 0 0 1-.372-.44.938.938 0 0 1-.24-.164.814.814 0 0 1-.068-1.15.827.827 0 0 1 1.16.055l.1-.1a2.81 2.81 0 0 0 .513.7 2.482 2.482 0 0 0 3.48.17l4.37-4.38a2.442 2.442 0 0 0-.2-3.453 2.48 2.48 0 0 0-3.48-.17l-2.294 2.3L7.93 4.01l2.95-2.957a4.136 4.136 0 0 1 5.8.283 4.07 4.07 0 0 1 .334 5.757zm-5.8-.283a4.652 4.652 0 0 1 .372.44.938.938 0 0 1 .24.164.814.814 0 0 1 .068 1.152.827.827 0 0 1-1.16-.057l-.1.1a2.805 2.805 0 0 0-.512-.7 2.48 2.48 0 0 0-3.48-.17l-4.37 4.38a2.443 2.443 0 0 0 .2 3.454 2.482 2.482 0 0 0 3.48.17l2.294-2.3 1.885.547-2.95 2.957a4.136 4.136 0 0 1-5.8-.282 4.07 4.07 0 0 1-.335-5.757l4.37-4.38a4.136 4.136 0 0 1 5.8.282z"/></svg>