<svg id="chain-angle.svg" xmlns="http://www.w3.org/2000/svg" width="18.062" height="18" viewBox="0 0 18.062 18"><defs><style>.cls-1{fill:#5e5e5e;fill-rule:evenodd}</style></defs><path id="Icon" class="cls-1" d="M19.983 10.093l-4.37 4.38a4.136 4.136 0 0 1-5.8-.283 4.7 4.7 0 0 1-.372-.44.938.938 0 0 1-.241-.164.814.814 0 0 1-.067-1.151.827.827 0 0 1 1.16.056l.1-.1a2.811 2.811 0 0 0 .513.7 2.482 2.482 0 0 0 3.479.17l4.37-4.38a2.442 2.442 0 0 0-.2-3.454 2.481 2.481 0 0 0-3.479-.17l-2.294 2.3-1.882-.548 2.95-2.956a4.136 4.136 0 0 1 5.8.283 4.071 4.071 0 0 1 .333 5.757zm-5.8-.283a4.652 4.652 0 0 1 .372.439.938.938 0 0 1 .241.165.814.814 0 0 1 .067 1.152.827.827 0 0 1-1.159-.057l-.1.1a2.805 2.805 0 0 0-.513-.7 2.481 2.481 0 0 0-3.479-.17l-4.37 4.38a2.443 2.443 0 0 0 .2 3.455 2.482 2.482 0 0 0 3.479.17l2.294-2.3 1.885.547-2.95 2.956a4.136 4.136 0 0 1-5.8-.282 4.071 4.071 0 0 1-.336-5.757l4.37-4.38a4.136 4.136 0 0 1 5.801.282z" transform="translate(-2.969 -3)"/></svg>