<svg xmlns="http://www.w3.org/2000/svg" width="24" height="24"><path d="M12 0A12 12 0 110 12 12 12 0 0112 0zm0 2A10 10 0 112 12 10 10 0 0112 2zm-.856 12.16h2.032a1.662 1.662 0 01.3-.992 6.134 6.134 0 01.9-.96 10.4 10.4 0 00.8-.792 3.179 3.179 0 00.52-.84 2.863 2.863 0 00.216-1.152 2.5 2.5 0 00-1.064-2.136 4.75 4.75 0 00-2.856-.776 6.037 6.037 0 00-2.56.5A4.487 4.487 0 007.656 8.46l1.552 1.008a3 3 0 012.608-1.232 2.339 2.339 0 011.456.416 1.308 1.308 0 01.544 1.088 1.4 1.4 0 01-.28.856 6.33 6.33 0 01-.856.888 7.256 7.256 0 00-1.144 1.24 2.459 2.459 0 00-.392 1.432zm1.024 3.824a1.227 1.227 0 00.9-.36 1.207 1.207 0 00.36-.888 1.18 1.18 0 00-.36-.88 1.243 1.243 0 00-.9-.352 1.261 1.261 0 00-.92.352 1.18 1.18 0 00-.36.88 1.207 1.207 0 00.36.888 1.245 1.245 0 00.92.36z" fill="#fff" fill-rule="evenodd"/></svg>