<svg xmlns="http://www.w3.org/2000/svg" width="24" height="24" viewBox="0 0 24 24"><defs><style>.cls-1{fill:#fff;fill-rule:evenodd}</style></defs><path id="circle-help-white.svg" class="cls-1" d="M150 68a12 12 0 1 1-12 12 12 12 0 0 1 12-12zm0 2a10 10 0 1 1-10 10 10 10 0 0 1 10-10zm-.856 12.16h2.032a1.662 1.662 0 0 1 .3-.992 6.134 6.134 0 0 1 .9-.96 10.4 10.4 0 0 0 .8-.792 3.179 3.179 0 0 0 .52-.84 2.863 2.863 0 0 0 .216-1.152 2.5 2.5 0 0 0-1.064-2.136 4.75 4.75 0 0 0-2.856-.776 6.037 6.037 0 0 0-2.56.5 4.487 4.487 0 0 0-1.776 1.448l1.552 1.008a3 3 0 0 1 2.608-1.232 2.339 2.339 0 0 1 1.456.416 1.308 1.308 0 0 1 .544 1.088 1.4 1.4 0 0 1-.28.856 6.33 6.33 0 0 1-.856.888 7.256 7.256 0 0 0-1.144 1.24 2.459 2.459 0 0 0-.392 1.432zm1.024 3.824a1.227 1.227 0 0 0 .9-.36 1.207 1.207 0 0 0 .36-.888 1.18 1.18 0 0 0-.36-.88 1.243 1.243 0 0 0-.9-.352 1.261 1.261 0 0 0-.92.352 1.18 1.18 0 0 0-.36.88 1.207 1.207 0 0 0 .36.888 1.245 1.245 0 0 0 .92.36z" transform="translate(-138 -68)"/></svg>