<svg xmlns="http://www.w3.org/2000/svg" width="38" height="38"><path data-name="3" d="M29 38v-5a3 3 0 00-3-3H12a3 3 0 00-3 3v5H0V0h9v5a3 3 0 003 3h14a3 3 0 003-3V0h9v38h-9zm0-26a3 3 0 00-3-3H12a3 3 0 00-3 3v14a3 3 0 003 3h14a3 3 0 003-3V12zm-3.495 3a2.5 2.5 0 01-.063-5h.125A2.494 2.494 0 0128 12.444v.1A2.5 2.5 0 0125.505 15zm2.459 11.357A2 2 0 0126 28H12a2 2 0 01-1.935-1.519L16 18l6 9 3.6-4.416z" opacity=".85" fill="#fff" fill-rule="evenodd"/><path data-name="2" d="M9 38v-5a3 3 0 013-3h14a3 3 0 013 3v5H9zM26 8H12a3 3 0 01-3-3V0h20v5a3 3 0 01-3 3z" opacity=".35" fill="#fff" fill-rule="evenodd"/><path data-name="1" d="M25.505 36a2.5 2.5 0 01-.063-5h.125A2.494 2.494 0 0128 33.444v.1A2.5 2.5 0 0125.505 36zM22 6l3.6-4.416 2.368 3.77A2 2 0 0126 7H12a2 2 0 01-1.935-1.519L13.9 0H18z" opacity=".75" fill="#fff" fill-rule="evenodd"/></svg>