<svg xmlns="http://www.w3.org/2000/svg" width="38" height="38"><path data-name="3" d="M0 38V0h38v38H0zm8-26a3 3 0 00-3-3H0v20h5a3 3 0 003-3V12zm21 0a3 3 0 00-3-3H12a3 3 0 00-3 3v14a3 3 0 003 3h14a3 3 0 003-3V12zm9-3h-5a3 3 0 00-3 3v14a3 3 0 003 3h5V9zm-12.495 6a2.5 2.5 0 01-.063-5h.125A2.494 2.494 0 0128 12.444v.1A2.5 2.5 0 0125.505 15zm2.459 11.357A2 2 0 0126 28H12a2 2 0 01-1.935-1.519L16 18l6 9 3.6-4.416z" opacity=".85" fill="#fff" fill-rule="evenodd"/><path data-name="2" d="M0 9h5a3 3 0 013 3v14a3 3 0 01-3 3H0V9zm30 17V12a3 3 0 013-3h5v20h-5a3 3 0 01-3-3z" opacity=".35" fill="#fff" fill-rule="evenodd"/><path data-name="1" d="M38 28h-5a2 2 0 01-1.935-1.519L37 18l1 1.5V28zM4.505 15a2.5 2.5 0 01-.063-5h.126A2.494 2.494 0 017 12.444v.1A2.5 2.5 0 014.505 15zM0 25.5L1 27l3.6-4.416 2.368 3.77A2 2 0 015 28H0v-2.5z" opacity=".75" fill="#fff" fill-rule="evenodd"/></svg>