<svg id="repeat-horizontal.svg" xmlns="http://www.w3.org/2000/svg" width="38" height="38" viewBox="0 0 38 38"><defs><style>.cls-1,.cls-2,.cls-3{fill:#fff;fill-rule:evenodd}.cls-1{opacity:.85}.cls-2{opacity:.35}.cls-3{opacity:.75}</style></defs><path id="_3" data-name="3" class="cls-1" d="M5 43V5h38v38H5zm8-26a3 3 0 0 0-3-3H5v20h5a3 3 0 0 0 3-3V17zm21 0a3 3 0 0 0-3-3H17a3 3 0 0 0-3 3v14a3 3 0 0 0 3 3h14a3 3 0 0 0 3-3V17zm9-3h-5a3 3 0 0 0-3 3v14a3 3 0 0 0 3 3h5V14zm-12.495 6a2.5 2.5 0 0 1-.063-5h.125A2.494 2.494 0 0 1 33 17.444v.1A2.5 2.5 0 0 1 30.505 20zm2.459 11.357A2 2 0 0 1 31 33H17a2 2 0 0 1-1.935-1.519L21 23l6 9 3.6-4.416z" transform="translate(-5 -5)"/><path id="_2" data-name="2" class="cls-2" d="M5 14h5a3 3 0 0 1 3 3v14a3 3 0 0 1-3 3H5V14zm30 17V17a3 3 0 0 1 3-3h5v20h-5a3 3 0 0 1-3-3z" transform="translate(-5 -5)"/><path id="_1" data-name="1" class="cls-3" d="M43 33h-5a2 2 0 0 1-1.935-1.519L42 23l1 1.5V33zM9.505 20a2.5 2.5 0 0 1-.063-5h.126A2.494 2.494 0 0 1 12 17.444v.1A2.5 2.5 0 0 1 9.505 20zM5 30.5L6 32l3.6-4.416 2.368 3.77A2 2 0 0 1 10 33H5v-2.5z" transform="translate(-5 -5)"/></svg>