<svg id="repeat-both.svg" xmlns="http://www.w3.org/2000/svg" width="38" height="38" viewBox="0 0 38 38"><defs><style>.cls-1,.cls-2,.cls-3{fill:#fff;fill-rule:evenodd}.cls-1{opacity:.85}.cls-2{opacity:.35}.cls-3{opacity:.75}</style></defs><path id="_3" data-name="3" class="cls-1" d="M38 34h5v1h-5a3 3 0 0 0-3 3v5h-1v-5a3 3 0 0 0-3-3H17a3 3 0 0 0-3 3v5h-1v-5a3 3 0 0 0-3-3H5v-1h5a3 3 0 0 0 3-3V17a3 3 0 0 0-3-3H5v-1h5a3 3 0 0 0 3-3V5h1v5a3 3 0 0 0 3 3h14a3 3 0 0 0 3-3V5h1v5a3 3 0 0 0 3 3h5v1h-5a3 3 0 0 0-3 3v14a3 3 0 0 0 3 3zm-4-17a3 3 0 0 0-3-3H17a3 3 0 0 0-3 3v14a3 3 0 0 0 3 3h14a3 3 0 0 0 3-3V17zm-3.495 3a2.5 2.5 0 0 1-.063-5h.125A2.494 2.494 0 0 1 33 17.444v.1A2.5 2.5 0 0 1 30.505 20zm2.459 11.357A2 2 0 0 1 31 33H17a2 2 0 0 1-1.935-1.519L21 23l6 9 3.6-4.416z" transform="translate(-5 -5)"/><path id="_2" data-name="2" class="cls-2" d="M31 13H17a3 3 0 0 1-3-3V5h20v5a3 3 0 0 1-3 3zM5 43v-8h5a3 3 0 0 1 3 3v5H5zm8-33a3 3 0 0 1-3 3H5V5h8v5zm0 7v14a3 3 0 0 1-3 3H5V14h5a3 3 0 0 1 3 3zm4 18h14a3 3 0 0 1 3 3v5H14v-5a3 3 0 0 1 3-3zM43 5v8h-5a3 3 0 0 1-3-3V5h8zm-8 33a3 3 0 0 1 3-3h5v8h-8v-5zm0-7V17a3 3 0 0 1 3-3h5v20h-5a3 3 0 0 1-3-3z" transform="translate(-5 -5)"/><path id="_3-2" data-name="3" class="cls-3" d="M30.6 6.584l2.368 3.77A2 2 0 0 1 31 12H17a2 2 0 0 1-1.935-1.519L18.9 5H23l4 6zM43 12h-5a2 2 0 0 1-1.935-1.519L39.9 5H43v7zM30.443 36h.125A2.494 2.494 0 0 1 33 38.444v.1A2.5 2.5 0 1 1 30.443 36zm5.622-4.519L42 23l1 1.5V33h-5a2 2 0 0 1-1.935-1.519zM9.505 41a2.5 2.5 0 0 1-.063-5h.126A2.494 2.494 0 0 1 12 38.444v.1A2.5 2.5 0 0 1 9.505 41zM6 11l3.6-4.416 2.368 3.77A2 2 0 0 1 10 12H5V9.5zm1.005 6.5A2.5 2.5 0 0 1 9.442 15h.126A2.494 2.494 0 0 1 12 17.444v.1a2.5 2.5 0 0 1-4.995-.044zM10 33H5v-2.5L6 32l3.6-4.416 2.368 3.77A2 2 0 0 1 10 33z" transform="translate(-5 -5)"/></svg>