<svg id="repeat-both.svg" xmlns="http://www.w3.org/2000/svg" width="38" height="38" viewBox="0 0 38 38">
  <defs>
    <style>
      .cls-1, .cls-2, .cls-3 {
        fill: #fff;
        fill-rule: evenodd;
      }

      .cls-1 {
        opacity: 0.85;
      }

      .cls-2 {
        opacity: 0.35;
      }

      .cls-3 {
        opacity: 0.75;
      }
    </style>
  </defs>
  <path id="_3" data-name="3" class="cls-1" d="M38,34h5v1H38a3,3,0,0,0-3,3v5H34V38a3,3,0,0,0-3-3H17a3,3,0,0,0-3,3v5H13V38a3,3,0,0,0-3-3H5V34h5a3,3,0,0,0,3-3V17a3,3,0,0,0-3-3H5V13h5a3,3,0,0,0,3-3V5h1v5a3,3,0,0,0,3,3H31a3,3,0,0,0,3-3V5h1v5a3,3,0,0,0,3,3h5v1H38a3,3,0,0,0-3,3V31A3,3,0,0,0,38,34ZM34,17a3,3,0,0,0-3-3H17a3,3,0,0,0-3,3V31a3,3,0,0,0,3,3H31a3,3,0,0,0,3-3V17Zm-3.495,3a2.5,2.5,0,0,1-.063-5h0.125A2.494,2.494,0,0,1,33,17.444v0.1A2.5,2.5,0,0,1,30.505,20Zm2.459,11.357A2,2,0,0,1,31,33H17a2,2,0,0,1-1.935-1.519L21,23l6,9,3.6-4.416Z" transform="translate(-5 -5)"/>
  <path id="_2" data-name="2" class="cls-2" d="M31,13H17a3,3,0,0,1-3-3V5H34v5A3,3,0,0,1,31,13ZM5,43V35h5a3,3,0,0,1,3,3v5H5Zm8-33a3,3,0,0,1-3,3H5V5h8v5Zm0,7V31a3,3,0,0,1-3,3H5V14h5A3,3,0,0,1,13,17Zm4,18H31a3,3,0,0,1,3,3v5H14V38A3,3,0,0,1,17,35ZM43,5v8H38a3,3,0,0,1-3-3V5h8ZM35,38a3,3,0,0,1,3-3h5v8H35V38Zm0-7V17a3,3,0,0,1,3-3h5V34H38A3,3,0,0,1,35,31Z" transform="translate(-5 -5)"/>
  <path id="_3-2" data-name="3" class="cls-3" d="M30.6,6.584l2.368,3.77A2,2,0,0,1,31,12H17a2,2,0,0,1-1.935-1.519L18.9,5H23l4,6ZM43,12H38a2,2,0,0,1-1.935-1.519L39.9,5H43v7ZM30.443,36h0.125A2.494,2.494,0,0,1,33,38.444v0.1A2.5,2.5,0,1,1,30.443,36Zm5.622-4.519L42,23l1,1.5V33H38A2,2,0,0,1,36.065,31.481ZM9.505,41a2.5,2.5,0,0,1-.063-5H9.568A2.494,2.494,0,0,1,12,38.444v0.1A2.5,2.5,0,0,1,9.505,41ZM6,11L9.6,6.584l2.368,3.77A2,2,0,0,1,10,12H5V9.5Zm1.005,6.5A2.5,2.5,0,0,1,9.442,15H9.568A2.494,2.494,0,0,1,12,17.444v0.1A2.5,2.5,0,0,1,7.005,17.5ZM10,33H5V30.5L6,32l3.6-4.416,2.368,3.77A2,2,0,0,1,10,33Z" transform="translate(-5 -5)"/>
</svg>
