<svg id="repeat-vertical.svg" xmlns="http://www.w3.org/2000/svg" width="38" height="38" viewBox="0 0 38 38"><defs><style>.cls-1,.cls-2,.cls-3{fill:#fff;fill-rule:evenodd}.cls-1{opacity:.85}.cls-2{opacity:.35}.cls-3{opacity:.75}</style></defs><path id="_3" data-name="3" class="cls-1" d="M34 43v-5a3 3 0 0 0-3-3H17a3 3 0 0 0-3 3v5H5V5h9v5a3 3 0 0 0 3 3h14a3 3 0 0 0 3-3V5h9v38h-9zm0-26a3 3 0 0 0-3-3H17a3 3 0 0 0-3 3v14a3 3 0 0 0 3 3h14a3 3 0 0 0 3-3V17zm-3.495 3a2.5 2.5 0 0 1-.063-5h.125A2.494 2.494 0 0 1 33 17.444v.1A2.5 2.5 0 0 1 30.505 20zm2.459 11.357A2 2 0 0 1 31 33H17a2 2 0 0 1-1.935-1.519L21 23l6 9 3.6-4.416z" transform="translate(-5 -5)"/><path id="_2" data-name="2" class="cls-2" d="M14 43v-5a3 3 0 0 1 3-3h14a3 3 0 0 1 3 3v5H14zm17-30H17a3 3 0 0 1-3-3V5h20v5a3 3 0 0 1-3 3z" transform="translate(-5 -5)"/><path id="_1" data-name="1" class="cls-3" d="M30.505 41a2.5 2.5 0 0 1-.063-5h.125A2.494 2.494 0 0 1 33 38.444v.1A2.5 2.5 0 0 1 30.505 41zM27 11l3.6-4.416 2.368 3.77A2 2 0 0 1 31 12H17a2 2 0 0 1-1.935-1.519L18.9 5H23z" transform="translate(-5 -5)"/></svg>