<svg id="repeat-no.svg" xmlns="http://www.w3.org/2000/svg" width="38" height="38" viewBox="0 0 38 38"><defs><style>.cls-1{fill:#fff;fill-rule:evenodd;opacity:.85}</style></defs><path id="Icon" class="cls-1" d="M5 43V5h38v38H5zm29-26a3 3 0 0 0-3-3H17a3 3 0 0 0-3 3v14a3 3 0 0 0 3 3h14a3 3 0 0 0 3-3V17zm-3.495 3a2.5 2.5 0 0 1-.063-5h.125A2.494 2.494 0 0 1 33 17.444v.1A2.5 2.5 0 0 1 30.505 20zm2.459 11.357A2 2 0 0 1 31 33H17a2 2 0 0 1-1.935-1.519L21 23l6 9 3.6-4.416z" transform="translate(-5 -5)"/></svg>