<svg xmlns="http://www.w3.org/2000/svg" width="38" height="38"><path data-name="3" d="M33 29h5v1h-5a3 3 0 00-3 3v5h-1v-5a3 3 0 00-3-3H12a3 3 0 00-3 3v5H8v-5a3 3 0 00-3-3H0v-1h5a3 3 0 003-3V12a3 3 0 00-3-3H0V8h5a3 3 0 003-3V0h1v5a3 3 0 003 3h14a3 3 0 003-3V0h1v5a3 3 0 003 3h5v1h-5a3 3 0 00-3 3v14a3 3 0 003 3zm-4-17a3 3 0 00-3-3H12a3 3 0 00-3 3v14a3 3 0 003 3h14a3 3 0 003-3V12zm-3.495 3a2.5 2.5 0 01-.063-5h.125A2.494 2.494 0 0128 12.444v.1A2.5 2.5 0 0125.505 15zm2.459 11.357A2 2 0 0126 28H12a2 2 0 01-1.935-1.519L16 18l6 9 3.6-4.416z" opacity=".85" fill="#fff" fill-rule="evenodd"/><path data-name="2" d="M26 8H12a3 3 0 01-3-3V0h20v5a3 3 0 01-3 3zM0 38v-8h5a3 3 0 013 3v5H0zM8 5a3 3 0 01-3 3H0V0h8v5zm0 7v14a3 3 0 01-3 3H0V9h5a3 3 0 013 3zm4 18h14a3 3 0 013 3v5H9v-5a3 3 0 013-3zM38 0v8h-5a3 3 0 01-3-3V0h8zm-8 33a3 3 0 013-3h5v8h-8v-5zm0-7V12a3 3 0 013-3h5v20h-5a3 3 0 01-3-3z" opacity=".35" fill="#fff" fill-rule="evenodd"/><path data-name="3" d="M25.6 1.584l2.368 3.77A2 2 0 0126 7H12a2 2 0 01-1.935-1.519L13.9 0H18l4 6zM38 7h-5a2 2 0 01-1.935-1.519L34.9 0H38v7zM25.443 31h.125A2.494 2.494 0 0128 33.444v.1A2.5 2.5 0 1125.443 31zm5.622-4.519L37 18l1 1.5V28h-5a2 2 0 01-1.935-1.519zM4.505 36a2.5 2.5 0 01-.063-5h.126A2.494 2.494 0 017 33.444v.1A2.5 2.5 0 014.505 36zM1 6l3.6-4.416 2.368 3.77A2 2 0 015 7H0V4.5zm1.005 6.5A2.5 2.5 0 014.442 10h.126A2.494 2.494 0 017 12.444v.1a2.5 2.5 0 01-4.995-.044zM5 28H0v-2.5L1 27l3.6-4.416 2.368 3.77A2 2 0 015 28z" opacity=".75" fill="#fff" fill-rule="evenodd"/></svg>