<svg id="scale-contain.svg" xmlns="http://www.w3.org/2000/svg" width="38" height="38" viewBox="0 0 38 38"><defs><style>.cls-1,.cls-2{fill:#fff;fill-rule:evenodd}.cls-1{opacity:.85}.cls-2{opacity:.35}</style></defs><path id="_3" data-name="3" class="cls-1" d="M5 43v-6h38v6H5zM5 5h38v6H5V5z" transform="translate(-5 -5)"/><path id="_2" data-name="2" class="cls-2" d="M38 36l-5-7-4 6-2.495-3.881L34 23l9 10.636V36h-5zm-28 0H5v-4.125L10 25l3.581 5.628z" transform="translate(-5 -5)"/><path id="_1" data-name="1" class="cls-1" d="M29 35l4-6 5 7H10l10-15zm6-16a3 3 0 1 1 3.011-3A3.006 3.006 0 0 1 35 19z" transform="translate(-5 -5)"/></svg>